<svg width="729" height="106" viewBox="0 0 729 106" fill="none" xmlns="http://www.w3.org/2000/svg">
<path d="M0.440001 98.52H5.62C11.1267 98.52 15.14 95.1133 17.66 88.3L47.76 3.32H51.26L81.64 92.36C82.5733 94.6933 83.6933 96.3267 85 97.26C86.3067 98.1 87.9867 98.52 90.04 98.52H97.88V103H54.48V98.52H63.72C65.12 98.52 66.2867 98.1933 67.22 97.54C68.1533 96.7933 68.62 95.9533 68.62 95.02C68.62 93.8067 68.4333 92.78 68.06 91.94L61.48 73.32H28.72L25.36 82.7C24.0533 86.4333 23.4 89.14 23.4 90.82C23.4 92.8733 23.9133 94.6933 24.94 96.28C25.9667 97.7733 27.74 98.52 30.26 98.52H38.8V103H0.440001V98.52ZM30.26 68.84H59.94L45.38 26.14L30.26 68.84ZM109.594 98.52H119.674C122.194 98.52 123.454 97.26 123.454 94.74V11.58C123.454 10.2733 123.127 9.33999 122.474 8.77999C121.914 8.12666 120.981 7.8 119.674 7.8H109.594V3.32H155.234C160.741 3.32 165.874 4.34666 170.634 6.39999C175.487 8.45333 179.361 11.3 182.254 14.94C185.147 18.4867 186.594 22.5467 186.594 27.12C186.594 33.4667 184.447 38.6933 180.154 42.8C175.861 46.9067 170.867 49.5667 165.174 50.78V51.34C169.001 51.62 172.781 52.8333 176.514 54.98C180.341 57.0333 183.467 59.88 185.894 63.52C188.414 67.16 189.674 71.2667 189.674 75.84C189.674 81.5333 188.181 86.4333 185.194 90.54C182.207 94.6467 178.194 97.7733 173.154 99.92C168.207 101.973 162.747 103 156.774 103H109.594V98.52ZM154.674 48.68C162.234 48.68 167.367 46.7667 170.074 42.94C172.874 39.02 174.274 33.7467 174.274 27.12C174.274 21.52 172.501 16.9 168.954 13.26C165.407 9.62 161.021 7.8 155.794 7.8H140.114C138.807 7.8 137.827 8.12666 137.174 8.77999C136.614 9.33999 136.334 10.2733 136.334 11.58V48.68H154.674ZM155.234 98.52C160.927 98.52 165.594 96.84 169.234 93.48C172.967 90.0267 174.834 84.1467 174.834 75.84C174.834 67.5333 172.967 61.7 169.234 58.34C165.594 54.8867 160.927 53.16 155.234 53.16H136.334V94.74C136.334 97.26 137.594 98.52 140.114 98.52H155.234ZM247.974 105.52C240.134 105.52 233.134 103.047 226.974 98.1C220.814 93.1533 216.008 86.6667 212.554 78.64C209.101 70.52 207.374 62.0267 207.374 53.16C207.374 44.2933 209.101 35.8467 212.554 27.82C216.008 19.7 220.814 13.1667 226.974 8.21999C233.134 3.27333 240.134 0.799997 247.974 0.799997C255.814 0.799997 262.814 3.27333 268.974 8.21999C275.134 13.1667 279.941 19.7 283.394 27.82C286.848 35.8467 288.574 44.2933 288.574 53.16C288.574 62.0267 286.848 70.52 283.394 78.64C279.941 86.6667 275.134 93.1533 268.974 98.1C262.814 103.047 255.814 105.52 247.974 105.52ZM247.974 101.04C257.121 101.04 263.701 96.8867 267.714 88.58C271.728 80.18 273.734 68.3733 273.734 53.16C273.734 37.8533 271.728 26.0467 267.714 17.74C263.701 9.43333 257.121 5.28 247.974 5.28C238.828 5.28 232.248 9.43333 228.234 17.74C224.221 26.0467 222.214 37.8533 222.214 53.16C222.214 68.3733 224.221 80.18 228.234 88.58C232.248 96.8867 238.828 101.04 247.974 101.04ZM349.597 105.52C341.197 105.52 334.243 103.887 328.737 100.62C323.23 97.26 319.17 92.92 316.557 87.6C314.037 82.1867 312.777 76.26 312.777 69.82V11.58C312.777 10.2733 312.45 9.33999 311.797 8.77999C311.237 8.12666 310.303 7.8 308.997 7.8H298.917V3.32H339.657V7.8H329.437C328.13 7.8 327.15 8.12666 326.497 8.77999C325.937 9.33999 325.657 10.2733 325.657 11.58V73.6C325.657 82.28 327.757 89.0467 331.957 93.9C336.157 98.66 342.037 101.04 349.597 101.04C355.477 101.04 360.517 99.8733 364.717 97.54C368.917 95.1133 372.09 91.94 374.237 88.02C376.383 84.1 377.457 79.8533 377.457 75.28V19.14C377.457 15.6867 376.617 12.9333 374.937 10.88C373.257 8.82666 371.11 7.8 368.497 7.8H363.597V3.32H396.917V7.8H392.017C389.403 7.8 387.257 8.82666 385.577 10.88C383.897 12.9333 383.057 15.6867 383.057 19.14V73.88C383.057 79.76 381.703 85.1267 378.997 89.98C376.383 94.74 372.51 98.52 367.377 101.32C362.337 104.12 356.41 105.52 349.597 105.52ZM428.595 98.52H442.035C444.555 98.52 445.815 97.26 445.815 94.74V11.16C445.815 9.85333 445.535 8.92 444.975 8.35999C444.415 7.70666 443.435 7.38 442.035 7.38H436.995C431.115 7.38 426.028 10.3667 421.735 16.34C419.028 20.1667 417.208 24.9733 416.275 30.76C415.342 36.4533 414.875 40.6533 414.875 43.36H410.955L412.075 3.32H492.435L493.555 43.36H489.635C489.635 40.6533 489.168 36.4533 488.235 30.76C487.302 24.9733 485.482 20.1667 482.775 16.34C478.482 10.3667 473.395 7.38 467.515 7.38H462.475C461.075 7.38 460.095 7.70666 459.535 8.35999C458.975 8.92 458.695 9.85333 458.695 11.16V94.74C458.695 97.26 459.955 98.52 462.475 98.52H475.915V103H428.595V98.52ZM598.015 105.52C589.615 105.52 582.661 103.887 577.155 100.62C571.648 97.26 567.588 92.92 564.975 87.6C562.455 82.1867 561.195 76.26 561.195 69.82V11.58C561.195 10.2733 560.868 9.33999 560.215 8.77999C559.655 8.12666 558.721 7.8 557.415 7.8H547.335V3.32H588.075V7.8H577.855C576.548 7.8 575.568 8.12666 574.915 8.77999C574.355 9.33999 574.075 10.2733 574.075 11.58V73.6C574.075 82.28 576.175 89.0467 580.375 93.9C584.575 98.66 590.455 101.04 598.015 101.04C603.895 101.04 608.935 99.8733 613.135 97.54C617.335 95.1133 620.508 91.94 622.655 88.02C624.801 84.1 625.875 79.8533 625.875 75.28V19.14C625.875 15.6867 625.035 12.9333 623.355 10.88C621.675 8.82666 619.528 7.8 616.915 7.8H612.015V3.32H645.335V7.8H640.435C637.821 7.8 635.675 8.82666 633.995 10.88C632.315 12.9333 631.475 15.6867 631.475 19.14V73.88C631.475 79.76 630.121 85.1267 627.415 89.98C624.801 94.74 620.928 98.52 615.795 101.32C610.755 104.12 604.828 105.52 598.015 105.52ZM698.433 105.52C694.513 105.52 690.64 104.68 686.813 103C683.08 101.227 679.813 99.3133 677.013 97.26C673.093 94.2733 670.76 92.78 670.013 92.78C668.146 92.78 666.933 94.7867 666.373 98.8L665.813 104.4H662.593L661.613 60.16H664.973C665.533 67.0667 667.446 73.6933 670.713 80.04C674.073 86.2933 678.226 91.38 683.173 95.3C688.12 99.1267 693.206 101.04 698.433 101.04C706.086 101.04 711.64 99.1733 715.093 95.44C718.64 91.7067 720.413 87.2267 720.413 82C720.413 77.4267 719.06 73.8333 716.353 71.22C713.74 68.6067 709.866 66.2733 704.733 64.22L683.453 55.68C676.08 52.6933 670.62 48.8667 667.073 44.2C663.62 39.44 661.893 33.7467 661.893 27.12C661.893 18.16 664.506 11.5333 669.733 7.24C674.96 2.94666 681.493 0.799997 689.333 0.799997C695.493 0.799997 702.306 3.6 709.773 9.2C710.706 9.85333 711.64 10.46 712.573 11.02C713.506 11.4867 714.346 11.72 715.093 11.72C716.68 11.72 717.613 10.6 717.893 8.35999L718.453 3.32H721.813L723.213 39.72H719.853C718.36 33 715.98 27.0267 712.713 21.8C709.54 16.5733 705.806 12.5133 701.513 9.61999C697.22 6.72666 692.786 5.28 688.213 5.28C682.986 5.28 678.693 7.00666 675.333 10.46C671.973 13.82 670.293 18.5333 670.293 24.6C670.293 28.8 671.366 32.0667 673.513 34.4C675.66 36.7333 678.833 38.74 683.033 40.42L710.053 51.2C716.306 53.72 720.973 57.3133 724.053 61.98C727.226 66.6467 728.813 71.5467 728.813 76.68C728.813 81.6267 727.693 86.2933 725.453 90.68C723.306 95.0667 719.946 98.66 715.373 101.46C710.893 104.167 705.246 105.52 698.433 105.52Z" fill="#EAE1DC"/>
</svg>
