<svg width="1002" height="106" viewBox="0 0 1002 106" fill="none" xmlns="http://www.w3.org/2000/svg">
<path d="M42.24 105.52C33.56 105.52 26.0933 103 19.84 97.96C13.5867 92.92 8.82667 86.34 5.56 78.22C2.38667 70.0067 0.8 61.3733 0.8 52.32C0.8 42.8933 2.38667 34.26 5.56 26.42C8.73333 18.58 13.26 12.3733 19.14 7.8C25.02 3.13333 31.88 0.799997 39.72 0.799997C43.8267 0.799997 47.7 1.73333 51.34 3.59999C54.98 5.46666 57.9667 7.47333 60.3 9.61999C62.54 11.6733 64.0333 12.7 64.78 12.7C65.5267 12.7 66.04 12.4667 66.32 12C66.6933 11.5333 67.0667 10.7867 67.44 9.76L70.1 1.91999H73.6L74.16 45.32H70.24C68.1867 36.4533 65.5267 29.0333 62.26 23.06C58.9933 16.9933 55.4 12.5133 51.48 9.61999C47.6533 6.72666 43.8267 5.28 40 5.28C31.1333 5.28 24.8333 9.29333 21.1 17.32C17.46 25.3467 15.64 37.0133 15.64 52.32C15.64 68.0933 17.5533 80.18 21.38 88.58C25.2067 96.8867 32.16 101.04 42.24 101.04C51.2 101.04 58.0133 97.7267 62.68 91.1C67.44 84.38 70.1467 76.26 70.8 66.74H75.84C75.56 72.2467 74.3933 77.94 72.34 83.82C70.38 89.7 66.9267 94.7867 61.98 99.08C57.0333 103.373 50.4533 105.52 42.24 105.52ZM135.189 105.52C127.349 105.52 120.349 103.047 114.189 98.1C108.029 93.1533 103.222 86.6667 99.7691 78.64C96.3157 70.52 94.5891 62.0267 94.5891 53.16C94.5891 44.2933 96.3157 35.8467 99.7691 27.82C103.222 19.7 108.029 13.1667 114.189 8.21999C120.349 3.27333 127.349 0.799997 135.189 0.799997C143.029 0.799997 150.029 3.27333 156.189 8.21999C162.349 13.1667 167.156 19.7 170.609 27.82C174.062 35.8467 175.789 44.2933 175.789 53.16C175.789 62.0267 174.062 70.52 170.609 78.64C167.156 86.6667 162.349 93.1533 156.189 98.1C150.029 103.047 143.029 105.52 135.189 105.52ZM135.189 101.04C144.336 101.04 150.916 96.8867 154.929 88.58C158.942 80.18 160.949 68.3733 160.949 53.16C160.949 37.8533 158.942 26.0467 154.929 17.74C150.916 9.43333 144.336 5.28 135.189 5.28C126.042 5.28 119.462 9.43333 115.449 17.74C111.436 26.0467 109.429 37.8533 109.429 53.16C109.429 68.3733 111.436 80.18 115.449 88.58C119.462 96.8867 126.042 101.04 135.189 101.04ZM191.496 98.52H201.576C204.096 98.52 205.356 97.26 205.356 94.74V11.58C205.356 10.2733 205.03 9.33999 204.376 8.77999C203.816 8.12666 202.883 7.8 201.576 7.8H191.496V3.32H234.336V7.8H222.016C220.71 7.8 219.73 8.12666 219.076 8.77999C218.516 9.33999 218.236 10.2733 218.236 11.58V94.74C218.236 97.26 219.496 98.52 222.016 98.52H236.156C241.103 98.52 245.536 97.4 249.456 95.16C253.376 92.92 256.316 89.6533 258.276 85.36C259.77 82.1867 260.983 78.8267 261.916 75.28C262.943 71.64 263.69 68.56 264.156 66.04C264.623 63.52 264.903 61.9333 264.996 61.28H268.496L267.236 103H191.496V98.52ZM285.285 98.52H295.365C297.885 98.52 299.145 97.26 299.145 94.74V11.58C299.145 10.2733 298.819 9.33999 298.165 8.77999C297.605 8.12666 296.672 7.8 295.365 7.8H285.285V3.32H328.125V7.8H315.805C314.499 7.8 313.519 8.12666 312.865 8.77999C312.305 9.33999 312.025 10.2733 312.025 11.58V94.74C312.025 97.26 313.285 98.52 315.805 98.52H329.945C334.892 98.52 339.325 97.4 343.245 95.16C347.165 92.92 350.105 89.6533 352.065 85.36C353.559 82.1867 354.772 78.8267 355.705 75.28C356.732 71.64 357.479 68.56 357.945 66.04C358.412 63.52 358.692 61.9333 358.785 61.28H362.285L361.025 103H285.285V98.52ZM379.075 98.52H389.155C391.675 98.52 392.935 97.26 392.935 94.74V11.58C392.935 10.2733 392.608 9.33999 391.955 8.77999C391.395 8.12666 390.461 7.8 389.155 7.8H379.075V3.32H457.195L457.755 38.32H454.255C454.255 36.4533 453.835 33.28 452.995 28.8C452.248 24.32 450.708 20.3067 448.375 16.76C444.455 10.7867 438.948 7.8 431.855 7.8H409.595C408.288 7.8 407.308 8.12666 406.655 8.77999C406.095 9.33999 405.815 10.2733 405.815 11.58V49.24H416.595C421.355 49.24 424.761 46.8133 426.815 41.96C428.961 37.1067 430.035 31.9267 430.035 26.42H433.675V76.54H430.035C430.035 71.0333 428.961 65.8533 426.815 61C424.761 56.1467 421.355 53.72 416.595 53.72H405.815V94.74C405.815 97.26 407.075 98.52 409.595 98.52H431.995C434.701 98.52 437.455 97.9133 440.255 96.7C443.055 95.4867 445.435 93.62 447.395 91.1C449.261 88.4867 450.801 85.22 452.015 81.3C453.228 77.38 454.068 73.8333 454.535 70.66C455.001 67.3933 455.281 65.2933 455.375 64.36H458.875L457.195 103H379.075V98.52ZM518.295 105.52C509.615 105.52 502.148 103 495.895 97.96C489.641 92.92 484.881 86.34 481.615 78.22C478.441 70.0067 476.855 61.3733 476.855 52.32C476.855 42.8933 478.441 34.26 481.615 26.42C484.788 18.58 489.315 12.3733 495.195 7.8C501.075 3.13333 507.935 0.799997 515.775 0.799997C519.881 0.799997 523.755 1.73333 527.395 3.59999C531.035 5.46666 534.021 7.47333 536.355 9.61999C538.595 11.6733 540.088 12.7 540.835 12.7C541.581 12.7 542.095 12.4667 542.375 12C542.748 11.5333 543.121 10.7867 543.495 9.76L546.155 1.91999H549.655L550.215 45.32H546.295C544.241 36.4533 541.581 29.0333 538.315 23.06C535.048 16.9933 531.455 12.5133 527.535 9.61999C523.708 6.72666 519.881 5.28 516.055 5.28C507.188 5.28 500.888 9.29333 497.155 17.32C493.515 25.3467 491.695 37.0133 491.695 52.32C491.695 68.0933 493.608 80.18 497.435 88.58C501.261 96.8867 508.215 101.04 518.295 101.04C527.255 101.04 534.068 97.7267 538.735 91.1C543.495 84.38 546.201 76.26 546.855 66.74H551.895C551.615 72.2467 550.448 77.94 548.395 83.82C546.435 89.7 542.981 94.7867 538.035 99.08C533.088 103.373 526.508 105.52 518.295 105.52ZM588.564 98.52H602.004C604.524 98.52 605.784 97.26 605.784 94.74V11.16C605.784 9.85333 605.504 8.92 604.944 8.35999C604.384 7.70666 603.404 7.38 602.004 7.38H596.964C591.084 7.38 585.997 10.3667 581.704 16.34C578.997 20.1667 577.177 24.9733 576.244 30.76C575.31 36.4533 574.844 40.6533 574.844 43.36H570.924L572.044 3.32H652.404L653.524 43.36H649.604C649.604 40.6533 649.137 36.4533 648.204 30.76C647.27 24.9733 645.45 20.1667 642.744 16.34C638.45 10.3667 633.364 7.38 627.484 7.38H622.444C621.044 7.38 620.064 7.70666 619.504 8.35999C618.944 8.92 618.664 9.85333 618.664 11.16V94.74C618.664 97.26 619.924 98.52 622.444 98.52H635.884V103H588.564V98.52ZM669.465 98.52H679.545C682.065 98.52 683.325 97.26 683.325 94.74V11.58C683.325 10.2733 682.998 9.33999 682.345 8.77999C681.785 8.12666 680.852 7.8 679.545 7.8H669.465V3.32H710.065V7.8H699.985C698.678 7.8 697.698 8.12666 697.045 8.77999C696.485 9.33999 696.205 10.2733 696.205 11.58V94.74C696.205 97.26 697.465 98.52 699.985 98.52H710.065V103H669.465V98.52ZM766.283 105.52C758.443 105.52 751.443 103.047 745.283 98.1C739.123 93.1533 734.316 86.6667 730.863 78.64C727.409 70.52 725.683 62.0267 725.683 53.16C725.683 44.2933 727.409 35.8467 730.863 27.82C734.316 19.7 739.123 13.1667 745.283 8.21999C751.443 3.27333 758.443 0.799997 766.283 0.799997C774.123 0.799997 781.123 3.27333 787.283 8.21999C793.443 13.1667 798.249 19.7 801.703 27.82C805.156 35.8467 806.883 44.2933 806.883 53.16C806.883 62.0267 805.156 70.52 801.703 78.64C798.249 86.6667 793.443 93.1533 787.283 98.1C781.123 103.047 774.123 105.52 766.283 105.52ZM766.283 101.04C775.429 101.04 782.009 96.8867 786.023 88.58C790.036 80.18 792.043 68.3733 792.043 53.16C792.043 37.8533 790.036 26.0467 786.023 17.74C782.009 9.43333 775.429 5.28 766.283 5.28C757.136 5.28 750.556 9.43333 746.543 17.74C742.529 26.0467 740.523 37.8533 740.523 53.16C740.523 68.3733 742.529 80.18 746.543 88.58C750.556 96.8867 757.136 101.04 766.283 101.04ZM842.61 18.58H842.05V87.32C842.05 90.7733 842.843 93.5267 844.43 95.58C846.11 97.54 848.257 98.52 850.87 98.52H855.91V103H822.59V98.52H827.63C830.337 98.52 832.483 97.54 834.07 95.58C835.657 93.5267 836.45 90.7733 836.45 87.32V11.58C836.357 10.2733 836.03 9.33999 835.47 8.77999C834.91 8.12666 833.977 7.8 832.67 7.8H822.59V3.32H849.05L897.63 81.44V19C897.63 15.5467 896.837 12.84 895.25 10.88C893.663 8.82666 891.563 7.8 888.95 7.8H883.91V3.32H917.23V7.8H912.19C909.577 7.8 907.43 8.82666 905.75 10.88C904.07 12.84 903.23 15.5467 903.23 19V105.52H897.63L842.61 18.58ZM970.785 105.52C966.865 105.52 962.991 104.68 959.165 103C955.431 101.227 952.165 99.3133 949.365 97.26C945.445 94.2733 943.111 92.78 942.365 92.78C940.498 92.78 939.285 94.7867 938.725 98.8L938.165 104.4H934.945L933.965 60.16H937.325C937.885 67.0667 939.798 73.6933 943.065 80.04C946.425 86.2933 950.578 91.38 955.525 95.3C960.471 99.1267 965.558 101.04 970.785 101.04C978.438 101.04 983.991 99.1733 987.445 95.44C990.991 91.7067 992.765 87.2267 992.765 82C992.765 77.4267 991.411 73.8333 988.705 71.22C986.091 68.6067 982.218 66.2733 977.085 64.22L955.805 55.68C948.431 52.6933 942.971 48.8667 939.425 44.2C935.971 39.44 934.245 33.7467 934.245 27.12C934.245 18.16 936.858 11.5333 942.085 7.24C947.311 2.94666 953.845 0.799997 961.685 0.799997C967.845 0.799997 974.658 3.6 982.125 9.2C983.058 9.85333 983.991 10.46 984.925 11.02C985.858 11.4867 986.698 11.72 987.445 11.72C989.031 11.72 989.965 10.6 990.245 8.35999L990.805 3.32H994.165L995.565 39.72H992.205C990.711 33 988.331 27.0267 985.065 21.8C981.891 16.5733 978.158 12.5133 973.865 9.61999C969.571 6.72666 965.138 5.28 960.565 5.28C955.338 5.28 951.045 7.00666 947.685 10.46C944.325 13.82 942.645 18.5333 942.645 24.6C942.645 28.8 943.718 32.0667 945.865 34.4C948.011 36.7333 951.185 38.74 955.385 40.42L982.405 51.2C988.658 53.72 993.325 57.3133 996.405 61.98C999.578 66.6467 1001.16 71.5467 1001.16 76.68C1001.16 81.6267 1000.04 86.2933 997.805 90.68C995.658 95.0667 992.298 98.66 987.725 101.46C983.245 104.167 977.598 105.52 970.785 105.52Z" fill="#EAE1DC"/>
</svg>
