<svg width="376" height="52" viewBox="0 0 376 52" fill="none" xmlns="http://www.w3.org/2000/svg">
<path d="M159.908 19.112C158.928 19.112 158.041 18.8973 157.248 18.468C156.464 18.0293 155.848 17.432 155.4 16.676C154.952 15.9107 154.728 15.052 154.728 14.1C154.728 13.148 154.952 12.294 155.4 11.538C155.848 10.7727 156.469 10.1753 157.262 9.746C158.055 9.30733 158.942 9.088 159.922 9.088C160.687 9.088 161.387 9.21867 162.022 9.48C162.657 9.732 163.198 10.11 163.646 10.614L162.736 11.496C161.999 10.7213 161.079 10.334 159.978 10.334C159.25 10.334 158.592 10.4973 158.004 10.824C157.416 11.1507 156.954 11.6033 156.618 12.182C156.291 12.7513 156.128 13.3907 156.128 14.1C156.128 14.8093 156.291 15.4533 156.618 16.032C156.954 16.6013 157.416 17.0493 158.004 17.376C158.592 17.7027 159.25 17.866 159.978 17.866C161.07 17.866 161.989 17.474 162.736 16.69L163.646 17.572C163.198 18.076 162.652 18.4587 162.008 18.72C161.373 18.9813 160.673 19.112 159.908 19.112ZM170.676 12.756H167.96V19H166.616V12.756H163.9V11.58H170.676V12.756ZM178.713 11.58L175.115 19.742C174.798 20.498 174.424 21.03 173.995 21.338C173.575 21.646 173.066 21.8 172.469 21.8C172.105 21.8 171.75 21.7393 171.405 21.618C171.069 21.506 170.789 21.338 170.565 21.114L171.139 20.106C171.522 20.47 171.965 20.652 172.469 20.652C172.796 20.652 173.066 20.5633 173.281 20.386C173.505 20.218 173.706 19.924 173.883 19.504L174.121 18.986L170.845 11.58H172.245L174.835 17.516L177.397 11.58H178.713ZM187.239 17.824V20.722H185.979V19H179.777V20.722H178.503V17.824H178.895C179.371 17.796 179.697 17.46 179.875 16.816C180.052 16.172 180.173 15.262 180.239 14.086L180.351 11.58H186.105V17.824H187.239ZM181.471 14.184C181.433 15.1173 181.354 15.892 181.233 16.508C181.121 17.1147 180.911 17.5533 180.603 17.824H184.761V12.756H181.541L181.471 14.184ZM188.99 11.58H190.334V16.984L194.883 11.58H196.102V19H194.757V13.596L190.222 19H188.99V11.58ZM204.66 11.58V19H203.456V16.648H201.3H201.146L199.522 19H198.08L199.886 16.466C199.326 16.298 198.897 16.0227 198.598 15.64C198.3 15.248 198.15 14.7627 198.15 14.184C198.15 13.3347 198.44 12.6907 199.018 12.252C199.597 11.804 200.395 11.58 201.412 11.58H204.66ZM199.522 14.226C199.522 14.7207 199.676 15.0893 199.984 15.332C200.302 15.5653 200.773 15.682 201.398 15.682H203.456V12.756H201.454C200.166 12.756 199.522 13.246 199.522 14.226ZM218.588 17.824V20.722H217.328V19H211.126V20.722H209.852V17.824H210.244C210.72 17.796 211.047 17.46 211.224 16.816C211.402 16.172 211.523 15.262 211.588 14.086L211.7 11.58H217.454V17.824H218.588ZM212.82 14.184C212.783 15.1173 212.704 15.892 212.582 16.508C212.47 17.1147 212.26 17.5533 211.952 17.824H216.11V12.756H212.89L212.82 14.184ZM220.339 11.58H221.683V16.984L226.233 11.58H227.451V19H226.107V13.596L221.571 19H220.339V11.58ZM233.955 15.136C234.449 15.2667 234.832 15.4767 235.103 15.766C235.373 16.0553 235.509 16.4147 235.509 16.844C235.509 17.2827 235.359 17.6747 235.061 18.02C234.762 18.356 234.347 18.622 233.815 18.818C233.292 19.0047 232.704 19.098 232.051 19.098C231.5 19.098 230.959 19.028 230.427 18.888C229.904 18.7387 229.437 18.5287 229.027 18.258L229.433 17.236C229.787 17.46 230.193 17.6373 230.651 17.768C231.108 17.8893 231.57 17.95 232.037 17.95C232.671 17.95 233.175 17.8427 233.549 17.628C233.931 17.404 234.123 17.1053 234.123 16.732C234.123 16.3867 233.969 16.1207 233.661 15.934C233.362 15.7473 232.937 15.654 232.387 15.654H231.029V14.688H232.289C232.793 14.688 233.189 14.5993 233.479 14.422C233.768 14.2447 233.913 14.002 233.913 13.694C233.913 13.358 233.74 13.0967 233.395 12.91C233.059 12.7233 232.601 12.63 232.023 12.63C231.285 12.63 230.506 12.8213 229.685 13.204L229.321 12.168C230.226 11.7107 231.173 11.482 232.163 11.482C232.76 11.482 233.297 11.566 233.773 11.734C234.249 11.902 234.622 12.14 234.893 12.448C235.163 12.756 235.299 13.106 235.299 13.498C235.299 13.862 235.177 14.1887 234.935 14.478C234.692 14.7673 234.365 14.9867 233.955 15.136ZM240.198 11.51C241.225 11.51 242.009 11.762 242.55 12.266C243.101 12.77 243.376 13.5213 243.376 14.52V19H242.102V18.02C241.878 18.3653 241.556 18.6313 241.136 18.818C240.725 18.9953 240.235 19.084 239.666 19.084C238.835 19.084 238.168 18.8833 237.664 18.482C237.169 18.0807 236.922 17.5533 236.922 16.9C236.922 16.2467 237.16 15.724 237.636 15.332C238.112 14.9307 238.868 14.73 239.904 14.73H242.032V14.464C242.032 13.8853 241.864 13.442 241.528 13.134C241.192 12.826 240.697 12.672 240.044 12.672C239.605 12.672 239.176 12.7467 238.756 12.896C238.336 13.036 237.981 13.2273 237.692 13.47L237.132 12.462C237.515 12.154 237.972 11.9207 238.504 11.762C239.036 11.594 239.601 11.51 240.198 11.51ZM239.89 18.048C240.403 18.048 240.847 17.936 241.22 17.712C241.593 17.4787 241.864 17.152 242.032 16.732V15.696H239.96C238.821 15.696 238.252 16.0787 238.252 16.844C238.252 17.2173 238.397 17.5113 238.686 17.726C238.975 17.9407 239.377 18.048 239.89 18.048ZM245.796 11.58H247.14V16.984L251.69 11.58H252.908V19H251.564V13.596L247.028 19H245.796V11.58ZM249.268 10.614C248.577 10.614 248.041 10.4507 247.658 10.124C247.275 9.788 247.079 9.30733 247.07 8.682H247.98C247.989 9.02733 248.106 9.30733 248.33 9.522C248.563 9.72733 248.871 9.83 249.254 9.83C249.637 9.83 249.945 9.72733 250.178 9.522C250.411 9.30733 250.533 9.02733 250.542 8.682H251.48C251.471 9.30733 251.27 9.788 250.878 10.124C250.486 10.4507 249.949 10.614 249.268 10.614ZM255.517 11.58H256.861V14.73H261.089V11.58H262.433V19H261.089V15.892H256.861V19H255.517V11.58ZM271.752 15.332C271.752 15.4347 271.743 15.57 271.724 15.738H265.704C265.788 16.3913 266.073 16.9187 266.558 17.32C267.053 17.712 267.664 17.908 268.392 17.908C269.279 17.908 269.993 17.6093 270.534 17.012L271.276 17.88C270.94 18.272 270.52 18.5707 270.016 18.776C269.521 18.9813 268.966 19.084 268.35 19.084C267.566 19.084 266.871 18.9253 266.264 18.608C265.657 18.2813 265.186 17.8287 264.85 17.25C264.523 16.6713 264.36 16.018 264.36 15.29C264.36 14.5713 264.519 13.9227 264.836 13.344C265.163 12.7653 265.606 12.3173 266.166 12C266.735 11.6733 267.375 11.51 268.084 11.51C268.793 11.51 269.423 11.6733 269.974 12C270.534 12.3173 270.968 12.7653 271.276 13.344C271.593 13.9227 271.752 14.5853 271.752 15.332ZM268.084 12.644C267.44 12.644 266.899 12.84 266.46 13.232C266.031 13.624 265.779 14.1373 265.704 14.772H270.464C270.389 14.1467 270.133 13.638 269.694 13.246C269.265 12.8447 268.728 12.644 268.084 12.644ZM277.771 11.51C278.49 11.51 279.134 11.6687 279.703 11.986C280.272 12.3033 280.716 12.7467 281.033 13.316C281.36 13.8853 281.523 14.5433 281.523 15.29C281.523 16.0367 281.36 16.6993 281.033 17.278C280.716 17.8473 280.272 18.2907 279.703 18.608C279.134 18.9253 278.49 19.084 277.771 19.084C277.239 19.084 276.749 18.9813 276.301 18.776C275.862 18.5707 275.489 18.272 275.181 17.88V21.716H273.837V11.58H275.125V12.756C275.424 12.3453 275.802 12.0373 276.259 11.832C276.716 11.6173 277.22 11.51 277.771 11.51ZM277.659 17.908C278.135 17.908 278.56 17.8007 278.933 17.586C279.316 17.362 279.614 17.054 279.829 16.662C280.053 16.2607 280.165 15.8033 280.165 15.29C280.165 14.7767 280.053 14.324 279.829 13.932C279.614 13.5307 279.316 13.2227 278.933 13.008C278.56 12.7933 278.135 12.686 277.659 12.686C277.192 12.686 276.768 12.798 276.385 13.022C276.012 13.2367 275.713 13.54 275.489 13.932C275.274 14.324 275.167 14.7767 275.167 15.29C275.167 15.8033 275.274 16.2607 275.489 16.662C275.704 17.054 276.002 17.362 276.385 17.586C276.768 17.8007 277.192 17.908 277.659 17.908ZM286.71 19.084C285.954 19.084 285.277 18.9207 284.68 18.594C284.092 18.2673 283.63 17.8193 283.294 17.25C282.958 16.6713 282.79 16.018 282.79 15.29C282.79 14.562 282.958 13.9133 283.294 13.344C283.63 12.7653 284.092 12.3173 284.68 12C285.277 11.6733 285.954 11.51 286.71 11.51C287.382 11.51 287.979 11.6453 288.502 11.916C289.034 12.1867 289.444 12.5787 289.734 13.092L288.712 13.75C288.478 13.3953 288.189 13.1293 287.844 12.952C287.498 12.7747 287.116 12.686 286.696 12.686C286.21 12.686 285.772 12.7933 285.38 13.008C284.997 13.2227 284.694 13.5307 284.47 13.932C284.255 14.324 284.148 14.7767 284.148 15.29C284.148 15.8127 284.255 16.2747 284.47 16.676C284.694 17.068 284.997 17.3713 285.38 17.586C285.772 17.8007 286.21 17.908 286.696 17.908C287.116 17.908 287.498 17.8193 287.844 17.642C288.189 17.4647 288.478 17.1987 288.712 16.844L289.734 17.488C289.444 18.0013 289.034 18.398 288.502 18.678C287.979 18.9487 287.382 19.084 286.71 19.084ZM294.358 15.864H292.818V19H291.474V11.58H292.818V14.716H294.386L296.794 11.58H298.236L295.422 15.15L298.432 19H296.85L294.358 15.864ZM302.773 19.084C302.036 19.084 301.373 18.9207 300.785 18.594C300.197 18.2673 299.735 17.8193 299.399 17.25C299.072 16.6713 298.909 16.018 298.909 15.29C298.909 14.562 299.072 13.9133 299.399 13.344C299.735 12.7653 300.197 12.3173 300.785 12C301.373 11.6733 302.036 11.51 302.773 11.51C303.51 11.51 304.168 11.6733 304.747 12C305.335 12.3173 305.792 12.7653 306.119 13.344C306.455 13.9133 306.623 14.562 306.623 15.29C306.623 16.018 306.455 16.6713 306.119 17.25C305.792 17.8193 305.335 18.2673 304.747 18.594C304.168 18.9207 303.51 19.084 302.773 19.084ZM302.773 17.908C303.249 17.908 303.674 17.8007 304.047 17.586C304.43 17.362 304.728 17.054 304.943 16.662C305.158 16.2607 305.265 15.8033 305.265 15.29C305.265 14.7767 305.158 14.324 304.943 13.932C304.728 13.5307 304.43 13.2227 304.047 13.008C303.674 12.7933 303.249 12.686 302.773 12.686C302.297 12.686 301.868 12.7933 301.485 13.008C301.112 13.2227 300.813 13.5307 300.589 13.932C300.374 14.324 300.267 14.7767 300.267 15.29C300.267 15.8033 300.374 16.2607 300.589 16.662C300.813 17.054 301.112 17.362 301.485 17.586C301.868 17.8007 302.297 17.908 302.773 17.908ZM314.024 12.756H309.908V19H308.564V11.58H314.024V12.756ZM318.25 19.084C317.512 19.084 316.85 18.9207 316.262 18.594C315.674 18.2673 315.212 17.8193 314.876 17.25C314.549 16.6713 314.386 16.018 314.386 15.29C314.386 14.562 314.549 13.9133 314.876 13.344C315.212 12.7653 315.674 12.3173 316.262 12C316.85 11.6733 317.512 11.51 318.25 11.51C318.987 11.51 319.645 11.6733 320.224 12C320.812 12.3173 321.269 12.7653 321.596 13.344C321.932 13.9133 322.1 14.562 322.1 15.29C322.1 16.018 321.932 16.6713 321.596 17.25C321.269 17.8193 320.812 18.2673 320.224 18.594C319.645 18.9207 318.987 19.084 318.25 19.084ZM318.25 17.908C318.726 17.908 319.15 17.8007 319.524 17.586C319.906 17.362 320.205 17.054 320.42 16.662C320.634 16.2607 320.742 15.8033 320.742 15.29C320.742 14.7767 320.634 14.324 320.42 13.932C320.205 13.5307 319.906 13.2227 319.524 13.008C319.15 12.7933 318.726 12.686 318.25 12.686C317.774 12.686 317.344 12.7933 316.962 13.008C316.588 13.2227 316.29 13.5307 316.066 13.932C315.851 14.324 315.744 14.7767 315.744 15.29C315.744 15.8033 315.851 16.2607 316.066 16.662C316.29 17.054 316.588 17.362 316.962 17.586C317.344 17.8007 317.774 17.908 318.25 17.908ZM160.832 32.756H158.116V39H156.772V32.756H154.056V31.58H160.832V32.756ZM168.584 35.332C168.584 35.4347 168.575 35.57 168.556 35.738H162.536C162.62 36.3913 162.905 36.9187 163.39 37.32C163.885 37.712 164.496 37.908 165.224 37.908C166.111 37.908 166.825 37.6093 167.366 37.012L168.108 37.88C167.772 38.272 167.352 38.5707 166.848 38.776C166.354 38.9813 165.798 39.084 165.182 39.084C164.398 39.084 163.703 38.9253 163.096 38.608C162.49 38.2813 162.018 37.8287 161.682 37.25C161.356 36.6713 161.192 36.018 161.192 35.29C161.192 34.5713 161.351 33.9227 161.668 33.344C161.995 32.7653 162.438 32.3173 162.998 32C163.568 31.6733 164.207 31.51 164.916 31.51C165.626 31.51 166.256 31.6733 166.806 32C167.366 32.3173 167.8 32.7653 168.108 33.344C168.426 33.9227 168.584 34.5853 168.584 35.332ZM164.916 32.644C164.272 32.644 163.731 32.84 163.292 33.232C162.863 33.624 162.611 34.1373 162.536 34.772H167.296C167.222 34.1467 166.965 33.638 166.526 33.246C166.097 32.8447 165.56 32.644 164.916 32.644ZM173.553 35.864H172.013V39H170.669V31.58H172.013V34.716H173.581L175.989 31.58H177.431L174.617 35.15L177.627 39H176.045L173.553 35.864ZM182.024 39.084C181.268 39.084 180.592 38.9207 179.994 38.594C179.406 38.2673 178.944 37.8193 178.608 37.25C178.272 36.6713 178.104 36.018 178.104 35.29C178.104 34.562 178.272 33.9133 178.608 33.344C178.944 32.7653 179.406 32.3173 179.994 32C180.592 31.6733 181.268 31.51 182.024 31.51C182.696 31.51 183.294 31.6453 183.816 31.916C184.348 32.1867 184.759 32.5787 185.048 33.092L184.026 33.75C183.793 33.3953 183.504 33.1293 183.158 32.952C182.813 32.7747 182.43 32.686 182.01 32.686C181.525 32.686 181.086 32.7933 180.694 33.008C180.312 33.2227 180.008 33.5307 179.784 33.932C179.57 34.324 179.462 34.7767 179.462 35.29C179.462 35.8127 179.57 36.2747 179.784 36.676C180.008 37.068 180.312 37.3713 180.694 37.586C181.086 37.8007 181.525 37.908 182.01 37.908C182.43 37.908 182.813 37.8193 183.158 37.642C183.504 37.4647 183.793 37.1987 184.026 36.844L185.048 37.488C184.759 38.0013 184.348 38.398 183.816 38.678C183.294 38.9487 182.696 39.084 182.024 39.084ZM192.223 32.756H189.507V39H188.163V32.756H185.447V31.58H192.223V32.756ZM193.597 31.58H194.941V36.984L199.491 31.58H200.709V39H199.365V33.596L194.829 39H193.597V31.58ZM209.688 31.58V39H208.344V32.756H205.152L205.068 34.408C205.021 35.4067 204.932 36.242 204.802 36.914C204.671 37.5767 204.456 38.1087 204.158 38.51C203.859 38.9113 203.444 39.112 202.912 39.112C202.669 39.112 202.394 39.07 202.086 38.986L202.17 37.852C202.291 37.88 202.403 37.894 202.506 37.894C202.879 37.894 203.159 37.7307 203.346 37.404C203.532 37.0773 203.654 36.69 203.71 36.242C203.766 35.794 203.817 35.1547 203.864 34.324L203.99 31.58H209.688ZM218.236 31.58V39H217.032V36.648H214.876H214.722L213.098 39H211.656L213.462 36.466C212.902 36.298 212.473 36.0227 212.174 35.64C211.876 35.248 211.726 34.7627 211.726 34.184C211.726 33.3347 212.016 32.6907 212.594 32.252C213.173 31.804 213.971 31.58 214.988 31.58H218.236ZM213.098 34.226C213.098 34.7207 213.252 35.0893 213.56 35.332C213.878 35.5653 214.349 35.682 214.974 35.682H217.032V32.756H215.03C213.742 32.756 213.098 33.246 213.098 34.226ZM229.672 35.15C230.634 35.3927 231.114 35.9947 231.114 36.956C231.114 37.6093 230.867 38.1133 230.372 38.468C229.887 38.8227 229.159 39 228.188 39H224.618V31.58H228.062C228.94 31.58 229.626 31.748 230.12 32.084C230.615 32.4107 230.862 32.8773 230.862 33.484C230.862 33.876 230.755 34.2167 230.54 34.506C230.335 34.786 230.046 35.0007 229.672 35.15ZM225.934 34.772H227.95C228.464 34.772 228.851 34.6787 229.112 34.492C229.383 34.3053 229.518 34.0347 229.518 33.68C229.518 32.9707 228.996 32.616 227.95 32.616H225.934V34.772ZM228.09 37.964C228.65 37.964 229.07 37.8753 229.35 37.698C229.63 37.5207 229.77 37.2453 229.77 36.872C229.77 36.4893 229.64 36.2047 229.378 36.018C229.126 35.8313 228.725 35.738 228.174 35.738H225.934V37.964H228.09ZM241.584 39.112C240.604 39.112 239.717 38.8973 238.924 38.468C238.14 38.0293 237.524 37.432 237.076 36.676C236.628 35.9107 236.404 35.052 236.404 34.1C236.404 33.148 236.628 32.294 237.076 31.538C237.524 30.7727 238.144 30.1753 238.938 29.746C239.731 29.3073 240.618 29.088 241.598 29.088C242.363 29.088 243.063 29.2187 243.698 29.48C244.332 29.732 244.874 30.11 245.322 30.614L244.412 31.496C243.674 30.7213 242.755 30.334 241.654 30.334C240.926 30.334 240.268 30.4973 239.68 30.824C239.092 31.1507 238.63 31.6033 238.294 32.182C237.967 32.7513 237.804 33.3907 237.804 34.1C237.804 34.8093 237.967 35.4533 238.294 36.032C238.63 36.6013 239.092 37.0493 239.68 37.376C240.268 37.7027 240.926 37.866 241.654 37.866C242.746 37.866 243.665 37.474 244.412 36.69L245.322 37.572C244.874 38.076 244.328 38.4587 243.684 38.72C243.049 38.9813 242.349 39.112 241.584 39.112ZM249.577 31.51C250.604 31.51 251.388 31.762 251.929 32.266C252.48 32.77 252.755 33.5213 252.755 34.52V39H251.481V38.02C251.257 38.3653 250.935 38.6313 250.515 38.818C250.104 38.9953 249.614 39.084 249.045 39.084C248.214 39.084 247.547 38.8833 247.043 38.482C246.548 38.0807 246.301 37.5533 246.301 36.9C246.301 36.2467 246.539 35.724 247.015 35.332C247.491 34.9307 248.247 34.73 249.283 34.73H251.411V34.464C251.411 33.8853 251.243 33.442 250.907 33.134C250.571 32.826 250.076 32.672 249.423 32.672C248.984 32.672 248.555 32.7467 248.135 32.896C247.715 33.036 247.36 33.2273 247.071 33.47L246.511 32.462C246.894 32.154 247.351 31.9207 247.883 31.762C248.415 31.594 248.98 31.51 249.577 31.51ZM249.269 38.048C249.782 38.048 250.226 37.936 250.599 37.712C250.972 37.4787 251.243 37.152 251.411 36.732V35.696H249.339C248.2 35.696 247.631 36.0787 247.631 36.844C247.631 37.2173 247.776 37.5113 248.065 37.726C248.354 37.9407 248.756 38.048 249.269 38.048ZM255.175 31.58H256.519V34.73H260.747V31.58H262.091V39H260.747V35.892H256.519V39H255.175V31.58ZM267.588 35.864H266.048V39H264.704V31.58H266.048V34.716H267.616L270.024 31.58H271.466L268.652 35.15L271.662 39H270.08L267.588 35.864ZM278.478 32.756H275.762V39H274.418V32.756H271.702V31.58H278.478V32.756ZM292.279 29.2V39H290.907V30.418H285.223V39H283.837V29.2H292.279ZM301.817 35.332C301.817 35.4347 301.807 35.57 301.789 35.738H295.769C295.853 36.3913 296.137 36.9187 296.623 37.32C297.117 37.712 297.729 37.908 298.457 37.908C299.343 37.908 300.057 37.6093 300.599 37.012L301.341 37.88C301.005 38.272 300.585 38.5707 300.081 38.776C299.586 38.9813 299.031 39.084 298.415 39.084C297.631 39.084 296.935 38.9253 296.329 38.608C295.722 38.2813 295.251 37.8287 294.915 37.25C294.588 36.6713 294.425 36.018 294.425 35.29C294.425 34.5713 294.583 33.9227 294.901 33.344C295.227 32.7653 295.671 32.3173 296.231 32C296.8 31.6733 297.439 31.51 298.149 31.51C298.858 31.51 299.488 31.6733 300.039 32C300.599 32.3173 301.033 32.7653 301.341 33.344C301.658 33.9227 301.817 34.5853 301.817 35.332ZM298.149 32.644C297.505 32.644 296.963 32.84 296.525 33.232C296.095 33.624 295.843 34.1373 295.769 34.772H300.529C300.454 34.1467 300.197 33.638 299.759 33.246C299.329 32.8447 298.793 32.644 298.149 32.644ZM309.117 32.756H306.401V39H305.057V32.756H302.341V31.58H309.117V32.756ZM316.869 35.332C316.869 35.4347 316.86 35.57 316.841 35.738H310.821C310.905 36.3913 311.19 36.9187 311.675 37.32C312.17 37.712 312.781 37.908 313.509 37.908C314.396 37.908 315.11 37.6093 315.651 37.012L316.393 37.88C316.057 38.272 315.637 38.5707 315.133 38.776C314.639 38.9813 314.083 39.084 313.467 39.084C312.683 39.084 311.988 38.9253 311.381 38.608C310.775 38.2813 310.303 37.8287 309.967 37.25C309.641 36.6713 309.477 36.018 309.477 35.29C309.477 34.5713 309.636 33.9227 309.953 33.344C310.28 32.7653 310.723 32.3173 311.283 32C311.853 31.6733 312.492 31.51 313.201 31.51C313.911 31.51 314.541 31.6733 315.091 32C315.651 32.3173 316.085 32.7653 316.393 33.344C316.711 33.9227 316.869 34.5853 316.869 35.332ZM313.201 32.644C312.557 32.644 312.016 32.84 311.577 33.232C311.148 33.624 310.896 34.1373 310.821 34.772H315.581C315.507 34.1467 315.25 33.638 314.811 33.246C314.382 32.8447 313.845 32.644 313.201 32.644ZM322.888 31.51C323.607 31.51 324.251 31.6687 324.82 31.986C325.39 32.3033 325.833 32.7467 326.15 33.316C326.477 33.8853 326.64 34.5433 326.64 35.29C326.64 36.0367 326.477 36.6993 326.15 37.278C325.833 37.8473 325.39 38.2907 324.82 38.608C324.251 38.9253 323.607 39.084 322.888 39.084C322.356 39.084 321.866 38.9813 321.418 38.776C320.98 38.5707 320.606 38.272 320.298 37.88V41.716H318.954V31.58H320.242V32.756C320.541 32.3453 320.919 32.0373 321.376 31.832C321.834 31.6173 322.338 31.51 322.888 31.51ZM322.776 37.908C323.252 37.908 323.677 37.8007 324.05 37.586C324.433 37.362 324.732 37.054 324.946 36.662C325.17 36.2607 325.282 35.8033 325.282 35.29C325.282 34.7767 325.17 34.324 324.946 33.932C324.732 33.5307 324.433 33.2227 324.05 33.008C323.677 32.7933 323.252 32.686 322.776 32.686C322.31 32.686 321.885 32.798 321.502 33.022C321.129 33.2367 320.83 33.54 320.606 33.932C320.392 34.324 320.284 34.7767 320.284 35.29C320.284 35.8033 320.392 36.2607 320.606 36.662C320.821 37.054 321.12 37.362 321.502 37.586C321.885 37.8007 322.31 37.908 322.776 37.908ZM332.373 31.832C333.064 31.832 333.68 31.986 334.221 32.294C334.762 32.602 335.182 33.0313 335.481 33.582C335.789 34.1233 335.943 34.744 335.943 35.444C335.943 36.1627 335.78 36.802 335.453 37.362C335.136 37.9127 334.683 38.342 334.095 38.65C333.516 38.958 332.854 39.112 332.107 39.112C330.847 39.112 329.872 38.6827 329.181 37.824C328.5 36.956 328.159 35.738 328.159 34.17C328.159 32.6487 328.472 31.4587 329.097 30.6C329.722 29.732 330.679 29.158 331.967 28.878L335.355 28.122L335.551 29.354L332.429 30.026C331.458 30.2407 330.735 30.6047 330.259 31.118C329.783 31.6313 329.512 32.3687 329.447 33.33C329.764 32.854 330.175 32.4853 330.679 32.224C331.183 31.9627 331.748 31.832 332.373 31.832ZM332.135 37.992C332.611 37.992 333.031 37.8847 333.395 37.67C333.768 37.4553 334.058 37.1613 334.263 36.788C334.468 36.4053 334.571 35.9713 334.571 35.486C334.571 34.7487 334.347 34.156 333.899 33.708C333.451 33.26 332.863 33.036 332.135 33.036C331.407 33.036 330.814 33.26 330.357 33.708C329.909 34.156 329.685 34.7487 329.685 35.486C329.685 35.9713 329.788 36.4053 329.993 36.788C330.208 37.1613 330.502 37.4553 330.875 37.67C331.248 37.8847 331.668 37.992 332.135 37.992ZM344.279 31.58L340.681 39.742C340.364 40.498 339.991 41.03 339.561 41.338C339.141 41.646 338.633 41.8 338.035 41.8C337.671 41.8 337.317 41.7393 336.971 41.618C336.635 41.506 336.355 41.338 336.131 41.114L336.705 40.106C337.088 40.47 337.531 40.652 338.035 40.652C338.362 40.652 338.633 40.5633 338.847 40.386C339.071 40.218 339.272 39.924 339.449 39.504L339.687 38.986L336.411 31.58H337.811L340.401 37.516L342.963 31.58H344.279ZM349.59 31.51C350.308 31.51 350.952 31.6687 351.522 31.986C352.091 32.3033 352.534 32.7467 352.852 33.316C353.178 33.8853 353.342 34.5433 353.342 35.29C353.342 36.0367 353.178 36.6993 352.852 37.278C352.534 37.8473 352.091 38.2907 351.522 38.608C350.952 38.9253 350.308 39.084 349.59 39.084C349.058 39.084 348.568 38.9813 348.12 38.776C347.681 38.5707 347.308 38.272 347 37.88V41.716H345.656V31.58H346.944V32.756C347.242 32.3453 347.62 32.0373 348.078 31.832C348.535 31.6173 349.039 31.51 349.59 31.51ZM349.478 37.908C349.954 37.908 350.378 37.8007 350.752 37.586C351.134 37.362 351.433 37.054 351.648 36.662C351.872 36.2607 351.984 35.8033 351.984 35.29C351.984 34.7767 351.872 34.324 351.648 33.932C351.433 33.5307 351.134 33.2227 350.752 33.008C350.378 32.7933 349.954 32.686 349.478 32.686C349.011 32.686 348.586 32.798 348.204 33.022C347.83 33.2367 347.532 33.54 347.308 33.932C347.093 34.324 346.986 34.7767 346.986 35.29C346.986 35.8033 347.093 36.2607 347.308 36.662C347.522 37.054 347.821 37.362 348.204 37.586C348.586 37.8007 349.011 37.908 349.478 37.908ZM360.754 32.756H356.638V39H355.294V31.58H360.754V32.756ZM368.508 35.332C368.508 35.4347 368.499 35.57 368.48 35.738H362.46C362.544 36.3913 362.829 36.9187 363.314 37.32C363.809 37.712 364.42 37.908 365.148 37.908C366.035 37.908 366.749 37.6093 367.29 37.012L368.032 37.88C367.696 38.272 367.276 38.5707 366.772 38.776C366.277 38.9813 365.722 39.084 365.106 39.084C364.322 39.084 363.627 38.9253 363.02 38.608C362.413 38.2813 361.942 37.8287 361.606 37.25C361.279 36.6713 361.116 36.018 361.116 35.29C361.116 34.5713 361.275 33.9227 361.592 33.344C361.919 32.7653 362.362 32.3173 362.922 32C363.491 31.6733 364.131 31.51 364.84 31.51C365.549 31.51 366.179 31.6733 366.73 32C367.29 32.3173 367.724 32.7653 368.032 33.344C368.349 33.9227 368.508 34.5853 368.508 35.332ZM364.84 32.644C364.196 32.644 363.655 32.84 363.216 33.232C362.787 33.624 362.535 34.1373 362.46 34.772H367.22C367.145 34.1467 366.889 33.638 366.45 33.246C366.021 32.8447 365.484 32.644 364.84 32.644Z" fill="#695A59"/>
<path d="M15.74 29.98H6.72L4.52 37.46L7.38 38.56V39H0.78V38.56L3.64 37.46L12.22 7.54H12.88L22.12 37.9L24.76 38.56V39H15.52V38.56L18.16 37.9L15.74 29.98ZM6.94 29.144H15.476L11.076 14.58L6.94 29.144ZM25.8394 39V38.56L28.4794 37.9V9.3L25.8394 8.64V8.2H33.7594C35.138 8.2 36.326 8.36133 37.3234 8.684C38.35 8.97733 39.2007 9.40267 39.8754 9.96C40.55 10.488 41.0487 11.1187 41.3714 11.852C41.7234 12.556 41.8994 13.3187 41.8994 14.14C41.8994 14.7853 41.7967 15.3573 41.5914 15.856C41.4154 16.3547 41.166 16.7947 40.8434 17.176C40.55 17.528 40.198 17.8507 39.7874 18.144C39.406 18.408 39.01 18.628 38.5994 18.804C37.6314 19.244 36.5314 19.5227 35.2994 19.64C37.118 19.816 38.7314 20.2707 40.1394 21.004C40.7554 21.3267 41.342 21.7227 41.8994 22.192C42.486 22.632 42.9994 23.1893 43.4394 23.864C43.9087 24.5093 44.2754 25.272 44.5394 26.152C44.8327 27.0027 44.9794 27.9853 44.9794 29.1C44.9794 30.4787 44.7154 31.7693 44.1874 32.972C43.6594 34.1747 42.8967 35.2307 41.8994 36.14C40.9314 37.02 39.758 37.724 38.3794 38.252C37.0007 38.7507 35.4607 39 33.7594 39H25.8394ZM32.2194 20.08V38.12H33.7594C34.7567 38.12 35.6807 37.9293 36.5314 37.548C37.382 37.1667 38.1154 36.5947 38.7314 35.832C39.3767 35.0693 39.8754 34.1307 40.2274 33.016C40.6087 31.9013 40.7994 30.596 40.7994 29.1C40.7994 27.604 40.6087 26.2987 40.2274 25.184C39.8754 24.0693 39.3767 23.1307 38.7314 22.368C38.1154 21.6053 37.382 21.0333 36.5314 20.652C35.6807 20.2707 34.7567 20.08 33.7594 20.08H32.2194ZM32.2194 19.2H33.7594C35.0794 19.1707 36.1354 18.7453 36.9274 17.924C37.7487 17.0733 38.1594 15.812 38.1594 14.14C38.1594 12.468 37.7487 11.2067 36.9274 10.356C36.1354 9.50533 35.0794 9.08 33.7594 9.08H32.2194V19.2ZM68.5142 23.6C68.5142 26.2987 68.2062 28.66 67.5902 30.684C67.0036 32.6787 66.2116 34.3507 65.2142 35.7C64.2462 37.02 63.1462 38.0173 61.9142 38.692C60.6822 39.3373 59.4356 39.66 58.1742 39.66C56.9129 39.66 55.6662 39.3373 54.4342 38.692C53.2022 38.0173 52.0876 37.02 51.0902 35.7C50.1222 34.3507 49.3302 32.6787 48.7142 30.684C48.1276 28.66 47.8342 26.2987 47.8342 23.6C47.8342 20.9013 48.1276 18.5547 48.7142 16.56C49.3302 14.536 50.1222 12.864 51.0902 11.544C52.0876 10.1947 53.2022 9.19733 54.4342 8.552C55.6662 7.87733 56.9129 7.54 58.1742 7.54C59.4356 7.54 60.6822 7.87733 61.9142 8.552C63.1462 9.19733 64.2462 10.1947 65.2142 11.544C66.2116 12.864 67.0036 14.536 67.5902 16.56C68.2062 18.5547 68.5142 20.9013 68.5142 23.6ZM64.3342 23.6C64.3342 20.5787 64.1436 18.0853 63.7622 16.12C63.4102 14.1253 62.9262 12.5413 62.3102 11.368C61.7236 10.1947 61.0636 9.37333 60.3302 8.904C59.5969 8.43467 58.8782 8.2 58.1742 8.2C57.4702 8.2 56.7516 8.43467 56.0182 8.904C55.2849 9.37333 54.6102 10.1947 53.9942 11.368C53.4076 12.5413 52.9236 14.1253 52.5422 16.12C52.1902 18.0853 52.0142 20.5787 52.0142 23.6C52.0142 26.6213 52.1902 29.1293 52.5422 31.124C52.9236 33.0893 53.4076 34.6587 53.9942 35.832C54.6102 37.0053 55.2849 37.8267 56.0182 38.296C56.7516 38.7653 57.4702 39 58.1742 39C58.8782 39 59.5969 38.7653 60.3302 38.296C61.0636 37.8267 61.7236 37.0053 62.3102 35.832C62.9262 34.6587 63.4102 33.0893 63.7622 31.124C64.1436 29.1293 64.3342 26.6213 64.3342 23.6ZM87.8656 30.64C87.8656 32.0187 87.6456 33.2653 87.2056 34.38C86.795 35.4947 86.1936 36.448 85.4016 37.24C84.639 38.0027 83.7003 38.5893 82.5856 39C81.471 39.44 80.2243 39.66 78.8456 39.66C77.731 39.66 76.6896 39.4547 75.7216 39.044C74.783 38.6333 73.947 38.0907 73.2136 37.416C72.5096 36.7413 71.9523 35.9787 71.5416 35.128C71.131 34.248 70.9256 33.3387 70.9256 32.4C70.9256 30.728 71.263 29.4813 71.9376 28.66C72.6416 27.8387 73.4776 27.3253 74.4456 27.12L77.5256 29.76C74.5923 30.2 73.1256 31.74 73.1256 34.38C73.1256 34.9373 73.2576 35.48 73.5216 36.008C73.7856 36.536 74.167 37.0053 74.6656 37.416C75.1643 37.8267 75.7656 38.164 76.4696 38.428C77.1736 38.6627 77.9656 38.78 78.8456 38.78C79.5496 38.78 80.2243 38.6333 80.8696 38.34C81.515 38.0173 82.0723 37.5333 82.5416 36.888C83.0403 36.2133 83.4216 35.3627 83.6856 34.336C83.979 33.3093 84.1256 32.0773 84.1256 30.64V9.3L81.4856 8.64V8.2H90.5056V8.64L87.8656 9.3V30.64ZM113.176 30.2C113.176 33.5147 112.487 35.92 111.108 37.416C109.759 38.912 107.808 39.66 105.256 39.66C102.264 39.66 99.9319 38.8387 98.2599 37.196C96.6173 35.524 95.7959 33.192 95.7959 30.2V9.3L93.1559 8.64V8.2H102.176V8.64L99.5359 9.3V30.2C99.5359 33.1627 100.123 35.3333 101.296 36.712C102.469 38.0907 103.936 38.78 105.696 38.78C106.693 38.78 107.588 38.6187 108.38 38.296C109.201 37.944 109.891 37.416 110.448 36.712C111.035 36.008 111.489 35.128 111.812 34.072C112.135 32.9867 112.296 31.696 112.296 30.2V9.74L109.436 8.64V8.2H116.036V8.64L113.176 9.74V30.2ZM127.05 8.2C128.927 8.2 130.555 8.40533 131.934 8.816C133.312 9.22666 134.456 9.784 135.366 10.488C136.275 11.192 136.95 12.0133 137.39 12.952C137.83 13.8613 138.05 14.844 138.05 15.9C138.05 16.7507 137.918 17.5133 137.654 18.188C137.419 18.8333 137.096 19.42 136.686 19.948C136.304 20.4467 135.85 20.872 135.322 21.224C134.794 21.576 134.266 21.8693 133.738 22.104C132.476 22.6613 131.054 23.0133 129.47 23.16C130.76 23.3067 131.934 23.6147 132.99 24.084C133.899 24.4947 134.75 25.096 135.542 25.888C136.334 26.68 136.803 27.7507 136.95 29.1L137.83 36.8C137.888 37.3573 138.02 37.7533 138.226 37.988C138.431 38.2227 138.666 38.34 138.93 38.34C139.076 38.34 139.223 38.296 139.37 38.208C139.546 38.0907 139.707 37.9587 139.854 37.812C140 37.6653 140.132 37.4747 140.25 37.24L140.69 37.68C140.514 38.0613 140.264 38.3987 139.942 38.692C139.678 38.9267 139.326 39.1467 138.886 39.352C138.475 39.5573 137.976 39.66 137.39 39.66C136.392 39.66 135.571 39.3813 134.926 38.824C134.31 38.2373 133.958 37.5627 133.87 36.8L132.99 29.1C132.872 28.1027 132.682 27.2667 132.418 26.592C132.154 25.888 131.787 25.316 131.318 24.876C130.878 24.436 130.306 24.1133 129.602 23.908C128.898 23.7027 128.047 23.6 127.05 23.6H125.29V37.9L127.93 38.56V39H118.91V38.56L121.55 37.9V9.3L118.91 8.64V8.2H127.05ZM133.87 15.9C133.87 13.7 133.283 12.0133 132.11 10.84C130.936 9.66667 129.25 9.08 127.05 9.08H125.29V22.72H127.05C129.25 22.72 130.936 22.1333 132.11 20.96C133.283 19.7867 133.87 18.1 133.87 15.9Z" fill="#695A59"/>
</svg>
