<svg width="595" height="106" viewBox="0 0 595 106" fill="none" xmlns="http://www.w3.org/2000/svg">
<path d="M20.98 15.92H20.14V87.32C20.14 90.7733 20.9333 93.5267 22.52 95.58C24.2 97.54 26.3467 98.52 28.96 98.52H34V103H0.68V98.52H5.72C8.33333 98.52 10.4333 97.54 12.02 95.58C13.7 93.5267 14.54 90.7733 14.54 87.32V11.58C14.54 10.2733 14.2133 9.33999 13.56 8.77999C13 8.12666 12.0667 7.8 10.76 7.8H0.68V3.32H30.36L53.18 80.46L74.46 3.32H103.44V7.8H93.36C92.0533 7.8 91.0733 8.12666 90.42 8.77999C89.86 9.33999 89.58 10.2733 89.58 11.58V94.74C89.58 97.26 90.84 98.52 93.36 98.52H103.44V103H62.84V98.52H72.92C75.44 98.52 76.7 97.26 76.7 94.74V12.14L51.08 104.68H47.72L20.98 15.92ZM117.985 98.52H128.065C130.585 98.52 131.845 97.26 131.845 94.74V11.58C131.845 10.2733 131.518 9.33999 130.865 8.77999C130.305 8.12666 129.371 7.8 128.065 7.8H117.985V3.32H158.585V7.8H148.505C147.198 7.8 146.218 8.12666 145.565 8.77999C145.005 9.33999 144.725 10.2733 144.725 11.58V94.74C144.725 97.26 145.985 98.52 148.505 98.52H158.585V103H117.985V98.52ZM213.542 105.52C209.622 105.52 205.749 104.68 201.922 103C198.189 101.227 194.922 99.3133 192.122 97.26C188.202 94.2733 185.869 92.78 185.122 92.78C183.256 92.78 182.042 94.7867 181.482 98.8L180.922 104.4H177.702L176.722 60.16H180.082C180.642 67.0667 182.556 73.6933 185.822 80.04C189.182 86.2933 193.336 91.38 198.282 95.3C203.229 99.1267 208.316 101.04 213.542 101.04C221.196 101.04 226.749 99.1733 230.202 95.44C233.749 91.7067 235.522 87.2267 235.522 82C235.522 77.4267 234.169 73.8333 231.462 71.22C228.849 68.6067 224.976 66.2733 219.842 64.22L198.562 55.68C191.189 52.6933 185.729 48.8667 182.182 44.2C178.729 39.44 177.002 33.7467 177.002 27.12C177.002 18.16 179.616 11.5333 184.842 7.24C190.069 2.94666 196.602 0.799997 204.442 0.799997C210.602 0.799997 217.416 3.6 224.882 9.2C225.816 9.85333 226.749 10.46 227.682 11.02C228.616 11.4867 229.456 11.72 230.202 11.72C231.789 11.72 232.722 10.6 233.002 8.35999L233.562 3.32H236.922L238.322 39.72H234.962C233.469 33 231.089 27.0267 227.822 21.8C224.649 16.5733 220.916 12.5133 216.622 9.61999C212.329 6.72666 207.896 5.28 203.322 5.28C198.096 5.28 193.802 7.00666 190.442 10.46C187.082 13.82 185.402 18.5333 185.402 24.6C185.402 28.8 186.476 32.0667 188.622 34.4C190.769 36.7333 193.942 38.74 198.142 40.42L225.162 51.2C231.416 53.72 236.082 57.3133 239.162 61.98C242.336 66.6467 243.922 71.5467 243.922 76.68C243.922 81.6267 242.802 86.2933 240.562 90.68C238.416 95.0667 235.056 98.66 230.482 101.46C226.002 104.167 220.356 105.52 213.542 105.52ZM300.359 105.52C296.439 105.52 292.565 104.68 288.739 103C285.005 101.227 281.739 99.3133 278.939 97.26C275.019 94.2733 272.685 92.78 271.939 92.78C270.072 92.78 268.859 94.7867 268.299 98.8L267.739 104.4H264.519L263.539 60.16H266.899C267.459 67.0667 269.372 73.6933 272.639 80.04C275.999 86.2933 280.152 91.38 285.099 95.3C290.045 99.1267 295.132 101.04 300.359 101.04C308.012 101.04 313.565 99.1733 317.019 95.44C320.565 91.7067 322.339 87.2267 322.339 82C322.339 77.4267 320.985 73.8333 318.279 71.22C315.665 68.6067 311.792 66.2733 306.659 64.22L285.379 55.68C278.005 52.6933 272.545 48.8667 268.999 44.2C265.545 39.44 263.819 33.7467 263.819 27.12C263.819 18.16 266.432 11.5333 271.659 7.24C276.885 2.94666 283.419 0.799997 291.259 0.799997C297.419 0.799997 304.232 3.6 311.699 9.2C312.632 9.85333 313.565 10.46 314.499 11.02C315.432 11.4867 316.272 11.72 317.019 11.72C318.605 11.72 319.539 10.6 319.819 8.35999L320.379 3.32H323.739L325.139 39.72H321.779C320.285 33 317.905 27.0267 314.639 21.8C311.465 16.5733 307.732 12.5133 303.439 9.61999C299.145 6.72666 294.712 5.28 290.139 5.28C284.912 5.28 280.619 7.00666 277.259 10.46C273.899 13.82 272.219 18.5333 272.219 24.6C272.219 28.8 273.292 32.0667 275.439 34.4C277.585 36.7333 280.759 38.74 284.959 40.42L311.979 51.2C318.232 53.72 322.899 57.3133 325.979 61.98C329.152 66.6467 330.739 71.5467 330.739 76.68C330.739 81.6267 329.619 86.2933 327.379 90.68C325.232 95.0667 321.872 98.66 317.299 101.46C312.819 104.167 307.172 105.52 300.359 105.52ZM346.715 98.52H356.795C359.315 98.52 360.575 97.26 360.575 94.74V11.58C360.575 10.2733 360.248 9.33999 359.595 8.77999C359.035 8.12666 358.102 7.8 356.795 7.8H346.715V3.32H387.315V7.8H377.235C375.928 7.8 374.948 8.12666 374.295 8.77999C373.735 9.33999 373.455 10.2733 373.455 11.58V94.74C373.455 97.26 374.715 98.52 377.235 98.52H387.315V103H346.715V98.52ZM443.533 105.52C435.693 105.52 428.693 103.047 422.533 98.1C416.373 93.1533 411.566 86.6667 408.113 78.64C404.659 70.52 402.933 62.0267 402.933 53.16C402.933 44.2933 404.659 35.8467 408.113 27.82C411.566 19.7 416.373 13.1667 422.533 8.21999C428.693 3.27333 435.693 0.799997 443.533 0.799997C451.373 0.799997 458.373 3.27333 464.533 8.21999C470.693 13.1667 475.499 19.7 478.953 27.82C482.406 35.8467 484.133 44.2933 484.133 53.16C484.133 62.0267 482.406 70.52 478.953 78.64C475.499 86.6667 470.693 93.1533 464.533 98.1C458.373 103.047 451.373 105.52 443.533 105.52ZM443.533 101.04C452.679 101.04 459.259 96.8867 463.273 88.58C467.286 80.18 469.293 68.3733 469.293 53.16C469.293 37.8533 467.286 26.0467 463.273 17.74C459.259 9.43333 452.679 5.28 443.533 5.28C434.386 5.28 427.806 9.43333 423.793 17.74C419.779 26.0467 417.773 37.8533 417.773 53.16C417.773 68.3733 419.779 80.18 423.793 88.58C427.806 96.8867 434.386 101.04 443.533 101.04ZM519.86 18.58H519.3V87.32C519.3 90.7733 520.093 93.5267 521.68 95.58C523.36 97.54 525.507 98.52 528.12 98.52H533.16V103H499.84V98.52H504.88C507.587 98.52 509.733 97.54 511.32 95.58C512.907 93.5267 513.7 90.7733 513.7 87.32V11.58C513.607 10.2733 513.28 9.33999 512.72 8.77999C512.16 8.12666 511.227 7.8 509.92 7.8H499.84V3.32H526.3L574.88 81.44V19C574.88 15.5467 574.087 12.84 572.5 10.88C570.913 8.82666 568.813 7.8 566.2 7.8H561.16V3.32H594.48V7.8H589.44C586.827 7.8 584.68 8.82666 583 10.88C581.32 12.84 580.48 15.5467 580.48 19V105.52H574.88L519.86 18.58Z" fill="#9A8584" fill-opacity="0.1"/>
</svg>
