<svg width="731" height="106" viewBox="0 0 731 106" fill="none" xmlns="http://www.w3.org/2000/svg">
<path d="M0.68 98.52H10.76C13.28 98.52 14.54 97.26 14.54 94.74V11.58C14.54 10.2733 14.2133 9.33999 13.56 8.77999C13 8.12666 12.0667 7.8 10.76 7.8H0.68V3.32H47.44C53.9733 3.32 59.76 4.44 64.8 6.68C69.9333 8.82666 73.9 11.9067 76.7 15.92C79.5933 19.84 81.04 24.32 81.04 29.36C81.04 34.4933 79.5933 39.0667 76.7 43.08C73.9 47.0933 69.9333 50.2667 64.8 52.6C59.76 54.84 53.9733 55.96 47.44 55.96H27.42V94.74C27.42 96.0467 27.7 97.0267 28.26 97.68C28.82 98.24 29.8 98.52 31.2 98.52H43.52V103H0.68V98.52ZM49.26 51.48C54.3 51.48 58.36 49.3333 61.44 45.04C64.6133 40.6533 66.2 35.4267 66.2 29.36C66.2 23.2933 64.66 18.2067 61.58 14.1C58.5 9.9 54.3933 7.8 49.26 7.8H31.2C29.8933 7.8 28.9133 8.12666 28.26 8.77999C27.7 9.33999 27.42 10.2733 27.42 11.58V51.48H49.26ZM168.356 104.68C165.276 104.68 162.663 104.167 160.516 103.14C158.463 102.113 156.83 100.433 155.616 98.1C153.096 93.2467 151.743 84.9867 151.556 73.32C151.463 67.0667 150.343 61.8867 148.196 57.78C146.05 53.58 142.596 51.48 137.836 51.48H122.576V94.74C122.576 96.0467 122.856 97.0267 123.416 97.68C123.976 98.24 124.956 98.52 126.356 98.52H138.816V103H95.8363V98.52H105.916C108.436 98.52 109.696 97.26 109.696 94.74V11.58C109.696 10.2733 109.37 9.33999 108.716 8.77999C108.156 8.12666 107.223 7.8 105.916 7.8H95.8363V3.32H141.756C150.81 3.32 158.23 5.04666 164.016 8.5C169.803 11.9533 172.696 17.6933 172.696 25.72C172.696 32.6267 170.083 38.18 164.856 42.38C159.723 46.58 153.516 49.0533 146.236 49.8V50.36C151.556 51.3867 155.896 53.86 159.256 57.78C162.71 61.6067 164.996 68.1867 166.116 77.52C166.77 82.84 167.33 86.7133 167.796 89.14C168.356 91.5667 169.01 93.2933 169.756 94.32C170.596 95.2533 171.81 95.72 173.396 95.72C177.41 95.72 179.416 90.68 179.416 80.6H182.916C182.916 86.6667 182.03 92.22 180.256 97.26C178.483 102.207 174.516 104.68 168.356 104.68ZM136.156 47C143.996 47 149.55 45.1333 152.816 41.4C156.176 37.5733 157.856 32.3467 157.856 25.72C157.856 20.0267 156.316 15.64 153.236 12.56C150.25 9.38666 146.143 7.8 140.916 7.8H126.356C125.05 7.8 124.07 8.12666 123.416 8.77999C122.856 9.33999 122.576 10.2733 122.576 11.58V47H136.156ZM237.771 105.52C229.931 105.52 222.931 103.047 216.771 98.1C210.611 93.1533 205.804 86.6667 202.351 78.64C198.898 70.52 197.171 62.0267 197.171 53.16C197.171 44.2933 198.898 35.8467 202.351 27.82C205.804 19.7 210.611 13.1667 216.771 8.21999C222.931 3.27333 229.931 0.799997 237.771 0.799997C245.611 0.799997 252.611 3.27333 258.771 8.21999C264.931 13.1667 269.738 19.7 273.191 27.82C276.644 35.8467 278.371 44.2933 278.371 53.16C278.371 62.0267 276.644 70.52 273.191 78.64C269.738 86.6667 264.931 93.1533 258.771 98.1C252.611 103.047 245.611 105.52 237.771 105.52ZM237.771 101.04C246.918 101.04 253.498 96.8867 257.511 88.58C261.524 80.18 263.531 68.3733 263.531 53.16C263.531 37.8533 261.524 26.0467 257.511 17.74C253.498 9.43333 246.918 5.28 237.771 5.28C228.624 5.28 222.044 9.43333 218.031 17.74C214.018 26.0467 212.011 37.8533 212.011 53.16C212.011 68.3733 214.018 80.18 218.031 88.58C222.044 96.8867 228.624 101.04 237.771 101.04ZM315.358 105.52C308.452 105.52 302.758 103.747 298.278 100.2C293.798 96.6533 291.558 91.7533 291.558 85.5C291.558 82.7 292.165 80.32 293.378 78.36C294.592 76.4 296.085 74.9533 297.858 74.02C299.725 72.9933 301.498 72.48 303.178 72.48C305.885 72.48 307.892 73.18 309.198 74.58C310.505 75.8867 311.158 77.52 311.158 79.48C311.158 81.44 310.598 82.98 309.478 84.1C308.452 85.1267 306.772 86.0133 304.438 86.76C302.852 87.2267 301.685 87.7867 300.938 88.44C300.285 89.0933 299.958 90.12 299.958 91.52C299.958 94.4133 301.452 96.7467 304.438 98.52C307.425 100.2 311.065 101.04 315.358 101.04C319.932 101.04 323.478 99.2667 325.998 95.72C328.518 92.1733 329.778 87.9267 329.778 82.98V11.58C329.778 10.2733 329.452 9.33999 328.798 8.77999C328.238 8.12666 327.305 7.8 325.998 7.8H315.918V3.32H356.518V7.8H346.438C345.132 7.8 344.152 8.12666 343.498 8.77999C342.938 9.33999 342.658 10.2733 342.658 11.58V75.84C342.658 82 341.398 87.32 338.878 91.8C336.358 96.28 332.998 99.6867 328.798 102.02C324.692 104.353 320.212 105.52 315.358 105.52ZM369.684 98.52H379.764C382.284 98.52 383.544 97.26 383.544 94.74V11.58C383.544 10.2733 383.217 9.33999 382.564 8.77999C382.004 8.12666 381.071 7.8 379.764 7.8H369.684V3.32H447.804L448.364 38.32H444.864C444.864 36.4533 444.444 33.28 443.604 28.8C442.857 24.32 441.317 20.3067 438.984 16.76C435.064 10.7867 429.557 7.8 422.464 7.8H400.204C398.897 7.8 397.917 8.12666 397.264 8.77999C396.704 9.33999 396.424 10.2733 396.424 11.58V49.24H407.204C411.964 49.24 415.371 46.8133 417.424 41.96C419.571 37.1067 420.644 31.9267 420.644 26.42H424.284V76.54H420.644C420.644 71.0333 419.571 65.8533 417.424 61C415.371 56.1467 411.964 53.72 407.204 53.72H396.424V94.74C396.424 97.26 397.684 98.52 400.204 98.52H422.604C425.311 98.52 428.064 97.9133 430.864 96.7C433.664 95.4867 436.044 93.62 438.004 91.1C439.871 88.4867 441.411 85.22 442.624 81.3C443.837 77.38 444.677 73.8333 445.144 70.66C445.611 67.3933 445.891 65.2933 445.984 64.36H449.484L447.804 103H369.684V98.52ZM508.904 105.52C500.224 105.52 492.757 103 486.504 97.96C480.251 92.92 475.491 86.34 472.224 78.22C469.051 70.0067 467.464 61.3733 467.464 52.32C467.464 42.8933 469.051 34.26 472.224 26.42C475.397 18.58 479.924 12.3733 485.804 7.8C491.684 3.13333 498.544 0.799997 506.384 0.799997C510.491 0.799997 514.364 1.73333 518.004 3.59999C521.644 5.46666 524.631 7.47333 526.964 9.61999C529.204 11.6733 530.697 12.7 531.444 12.7C532.191 12.7 532.704 12.4667 532.984 12C533.357 11.5333 533.731 10.7867 534.104 9.76L536.764 1.91999H540.264L540.824 45.32H536.904C534.851 36.4533 532.191 29.0333 528.924 23.06C525.657 16.9933 522.064 12.5133 518.144 9.61999C514.317 6.72666 510.491 5.28 506.664 5.28C497.797 5.28 491.497 9.29333 487.764 17.32C484.124 25.3467 482.304 37.0133 482.304 52.32C482.304 68.0933 484.217 80.18 488.044 88.58C491.871 96.8867 498.824 101.04 508.904 101.04C517.864 101.04 524.677 97.7267 529.344 91.1C534.104 84.38 536.811 76.26 537.464 66.74H542.504C542.224 72.2467 541.057 77.94 539.004 83.82C537.044 89.7 533.591 94.7867 528.644 99.08C523.697 103.373 517.117 105.52 508.904 105.52ZM579.173 98.52H592.613C595.133 98.52 596.393 97.26 596.393 94.74V11.16C596.393 9.85333 596.113 8.92 595.553 8.35999C594.993 7.70666 594.013 7.38 592.613 7.38H587.573C581.693 7.38 576.606 10.3667 572.313 16.34C569.606 20.1667 567.786 24.9733 566.853 30.76C565.92 36.4533 565.453 40.6533 565.453 43.36H561.533L562.653 3.32H643.013L644.133 43.36H640.213C640.213 40.6533 639.746 36.4533 638.813 30.76C637.88 24.9733 636.06 20.1667 633.353 16.34C629.06 10.3667 623.973 7.38 618.093 7.38H613.053C611.653 7.38 610.673 7.70666 610.113 8.35999C609.553 8.92 609.273 9.85333 609.273 11.16V94.74C609.273 97.26 610.533 98.52 613.053 98.52H626.493V103H579.173V98.52ZM700.535 105.52C696.615 105.52 692.741 104.68 688.915 103C685.181 101.227 681.915 99.3133 679.115 97.26C675.195 94.2733 672.861 92.78 672.115 92.78C670.248 92.78 669.035 94.7867 668.475 98.8L667.915 104.4H664.695L663.715 60.16H667.075C667.635 67.0667 669.548 73.6933 672.815 80.04C676.175 86.2933 680.328 91.38 685.275 95.3C690.221 99.1267 695.308 101.04 700.535 101.04C708.188 101.04 713.741 99.1733 717.195 95.44C720.741 91.7067 722.515 87.2267 722.515 82C722.515 77.4267 721.161 73.8333 718.455 71.22C715.841 68.6067 711.968 66.2733 706.835 64.22L685.555 55.68C678.181 52.6933 672.721 48.8667 669.175 44.2C665.721 39.44 663.995 33.7467 663.995 27.12C663.995 18.16 666.608 11.5333 671.835 7.24C677.061 2.94666 683.595 0.799997 691.435 0.799997C697.595 0.799997 704.408 3.6 711.875 9.2C712.808 9.85333 713.741 10.46 714.675 11.02C715.608 11.4867 716.448 11.72 717.195 11.72C718.781 11.72 719.715 10.6 719.995 8.35999L720.555 3.32H723.915L725.315 39.72H721.955C720.461 33 718.081 27.0267 714.815 21.8C711.641 16.5733 707.908 12.5133 703.615 9.61999C699.321 6.72666 694.888 5.28 690.315 5.28C685.088 5.28 680.795 7.00666 677.435 10.46C674.075 13.82 672.395 18.5333 672.395 24.6C672.395 28.8 673.468 32.0667 675.615 34.4C677.761 36.7333 680.935 38.74 685.135 40.42L712.155 51.2C718.408 53.72 723.075 57.3133 726.155 61.98C729.328 66.6467 730.915 71.5467 730.915 76.68C730.915 81.6267 729.795 86.2933 727.555 90.68C725.408 95.0667 722.048 98.66 717.475 101.46C712.995 104.167 707.348 105.52 700.535 105.52Z" fill="#EAE1DC"/>
</svg>
