<svg width="380" height="100" viewBox="0 0 380 100" fill="none" xmlns="http://www.w3.org/2000/svg">
<path d="M17.72 95.52H31.16C33.68 95.52 34.94 94.26 34.94 91.74V8.16C34.94 6.85333 34.66 5.92 34.1 5.35999C33.54 4.70666 32.56 4.38 31.16 4.38H26.12C20.24 4.38 15.1533 7.36666 10.86 13.34C8.15333 17.1667 6.33333 21.9733 5.4 27.76C4.46667 33.4533 4 37.6533 4 40.36H0.0800006L1.2 0.319998H81.56L82.68 40.36H78.76C78.76 37.6533 78.2933 33.4533 77.36 27.76C76.4267 21.9733 74.6067 17.1667 71.9 13.34C67.6067 7.36666 62.52 4.38 56.64 4.38H51.6C50.2 4.38 49.22 4.70666 48.66 5.35999C48.1 5.92 47.82 6.85333 47.82 8.16V91.74C47.82 94.26 49.08 95.52 51.6 95.52H65.04V100H17.72V95.52ZM85.1705 95.52H90.3505C95.8571 95.52 99.8705 92.1133 102.39 85.3L132.49 0.319998H135.99L166.37 89.36C167.304 91.6933 168.424 93.3267 169.73 94.26C171.037 95.1 172.717 95.52 174.77 95.52H182.61V100H139.21V95.52H148.45C149.85 95.52 151.017 95.1933 151.95 94.54C152.884 93.7933 153.35 92.9533 153.35 92.02C153.35 90.8067 153.164 89.78 152.79 88.94L146.21 70.32H113.45L110.09 79.7C108.784 83.4333 108.13 86.14 108.13 87.82C108.13 89.8733 108.644 91.6933 109.67 93.28C110.697 94.7733 112.47 95.52 114.99 95.52H123.53V100H85.1705V95.52ZM114.99 65.84H144.67L130.11 23.14L114.99 65.84ZM194.325 95.52H204.405C206.925 95.52 208.185 94.26 208.185 91.74V8.57999C208.185 7.27333 207.858 6.33999 207.205 5.77999C206.645 5.12666 205.711 4.8 204.405 4.8H194.325V0.319998H237.165V4.8H224.845C223.538 4.8 222.558 5.12666 221.905 5.77999C221.345 6.33999 221.065 7.27333 221.065 8.57999V91.74C221.065 94.26 222.325 95.52 224.845 95.52H238.985C243.931 95.52 248.365 94.4 252.285 92.16C256.205 89.92 259.145 86.6533 261.105 82.36C262.598 79.1867 263.811 75.8267 264.745 72.28C265.771 68.64 266.518 65.56 266.985 63.04C267.451 60.52 267.731 58.9333 267.825 58.28H271.325L270.065 100H194.325V95.52ZM288.114 95.52H298.194C300.714 95.52 301.974 94.26 301.974 91.74V8.57999C301.974 7.27333 301.647 6.33999 300.994 5.77999C300.434 5.12666 299.5 4.8 298.194 4.8H288.114V0.319998H328.014V4.8H318.634C317.327 4.8 316.347 5.12666 315.694 5.77999C315.134 6.33999 314.854 7.27333 314.854 8.57999V51.98L347.054 19.08C348.267 17.7733 349.154 16.4667 349.714 15.16C350.274 13.8533 350.554 12.36 350.554 10.68C350.554 9 349.947 7.6 348.734 6.47999C347.52 5.36 346.027 4.8 344.254 4.8H340.474V0.319998H377.434V4.8H371.834C368.754 4.8 364.554 7.55333 359.234 13.06L335.714 36.86L364.274 89.36C365.487 91.6933 366.84 93.3267 368.334 94.26C369.827 95.1 371.974 95.52 374.774 95.52H379.394V100H337.114V95.52H346.494C347.52 95.52 348.407 95.24 349.154 94.68C349.9 94.0267 350.274 93.3267 350.274 92.58C350.274 92.02 350.18 91.4133 349.994 90.76C349.807 90.0133 349.574 89.4533 349.294 89.08L326.474 46.24L314.854 58V91.74C314.854 94.26 316.114 95.52 318.634 95.52H328.014V100H288.114V95.52Z" fill="#9A8584" fill-opacity="0.1"/>
</svg>
