<svg width="749" height="106" viewBox="0 0 749 106" fill="none" xmlns="http://www.w3.org/2000/svg">
<path d="M41.4 105.52C33.56 105.52 26.56 103.047 20.4 98.1C14.24 93.1533 9.43333 86.6667 5.98 78.64C2.52667 70.52 0.8 62.0267 0.8 53.16C0.8 44.2933 2.52667 35.8467 5.98 27.82C9.43333 19.7 14.24 13.1667 20.4 8.21999C26.56 3.27333 33.56 0.799997 41.4 0.799997C49.24 0.799997 56.24 3.27333 62.4 8.21999C68.56 13.1667 73.3667 19.7 76.82 27.82C80.2733 35.8467 82 44.2933 82 53.16C82 62.0267 80.2733 70.52 76.82 78.64C73.3667 86.6667 68.56 93.1533 62.4 98.1C56.24 103.047 49.24 105.52 41.4 105.52ZM41.4 101.04C50.5467 101.04 57.1267 96.8867 61.14 88.58C65.1533 80.18 67.16 68.3733 67.16 53.16C67.16 37.8533 65.1533 26.0467 61.14 17.74C57.1267 9.43333 50.5467 5.28 41.4 5.28C32.2533 5.28 25.6733 9.43333 21.66 17.74C17.6467 26.0467 15.64 37.8533 15.64 53.16C15.64 68.3733 17.6467 80.18 21.66 88.58C25.6733 96.8867 32.2533 101.04 41.4 101.04ZM143.023 105.52C134.623 105.52 127.669 103.887 122.163 100.62C116.656 97.26 112.596 92.92 109.983 87.6C107.463 82.1867 106.203 76.26 106.203 69.82V11.58C106.203 10.2733 105.876 9.33999 105.223 8.77999C104.663 8.12666 103.729 7.8 102.423 7.8H92.3425V3.32H133.083V7.8H122.863C121.556 7.8 120.576 8.12666 119.923 8.77999C119.363 9.33999 119.083 10.2733 119.083 11.58V73.6C119.083 82.28 121.183 89.0467 125.383 93.9C129.583 98.66 135.463 101.04 143.023 101.04C148.903 101.04 153.943 99.8733 158.143 97.54C162.343 95.1133 165.516 91.94 167.663 88.02C169.809 84.1 170.883 79.8533 170.883 75.28V19.14C170.883 15.6867 170.043 12.9333 168.363 10.88C166.683 8.82666 164.536 7.8 161.923 7.8H157.022V3.32H190.343V7.8H185.443C182.829 7.8 180.683 8.82666 179.003 10.88C177.323 12.9333 176.483 15.6867 176.483 19.14V73.88C176.483 79.76 175.129 85.1267 172.423 89.98C169.809 94.74 165.936 98.52 160.803 101.32C155.763 104.12 149.836 105.52 143.023 105.52ZM275.501 104.68C272.421 104.68 269.807 104.167 267.661 103.14C265.607 102.113 263.974 100.433 262.761 98.1C260.241 93.2467 258.887 84.9867 258.701 73.32C258.607 67.0667 257.487 61.8867 255.341 57.78C253.194 53.58 249.741 51.48 244.981 51.48H229.721V94.74C229.721 96.0467 230.001 97.0267 230.561 97.68C231.121 98.24 232.101 98.52 233.501 98.52H245.961V103H202.981V98.52H213.061C215.581 98.52 216.841 97.26 216.841 94.74V11.58C216.841 10.2733 216.514 9.33999 215.861 8.77999C215.301 8.12666 214.367 7.8 213.061 7.8H202.981V3.32H248.901C257.954 3.32 265.374 5.04666 271.161 8.5C276.947 11.9533 279.841 17.6933 279.841 25.72C279.841 32.6267 277.227 38.18 272.001 42.38C266.867 46.58 260.661 49.0533 253.381 49.8V50.36C258.701 51.3867 263.041 53.86 266.401 57.78C269.854 61.6067 272.141 68.1867 273.261 77.52C273.914 82.84 274.474 86.7133 274.941 89.14C275.501 91.5667 276.154 93.2933 276.901 94.32C277.741 95.2533 278.954 95.72 280.541 95.72C284.554 95.72 286.561 90.68 286.561 80.6H290.061C290.061 86.6667 289.174 92.22 287.401 97.26C285.627 102.207 281.661 104.68 275.501 104.68ZM243.301 47C251.141 47 256.694 45.1333 259.961 41.4C263.321 37.5733 265.001 32.3467 265.001 25.72C265.001 20.0267 263.461 15.64 260.381 12.56C257.394 9.38666 253.287 7.8 248.061 7.8H233.501C232.194 7.8 231.214 8.12666 230.561 8.77999C230.001 9.33999 229.721 10.2733 229.721 11.58V47H243.301ZM361.474 98.52H374.914C377.434 98.52 378.694 97.26 378.694 94.74V11.16C378.694 9.85333 378.414 8.92 377.854 8.35999C377.294 7.70666 376.314 7.38 374.914 7.38H369.874C363.994 7.38 358.907 10.3667 354.614 16.34C351.907 20.1667 350.087 24.9733 349.154 30.76C348.221 36.4533 347.754 40.6533 347.754 43.36H343.834L344.954 3.32H425.314L426.434 43.36H422.514C422.514 40.6533 422.047 36.4533 421.114 30.76C420.181 24.9733 418.361 20.1667 415.654 16.34C411.361 10.3667 406.274 7.38 400.394 7.38H395.354C393.954 7.38 392.974 7.70666 392.414 8.35999C391.854 8.92 391.574 9.85333 391.574 11.16V94.74C391.574 97.26 392.834 98.52 395.354 98.52H408.794V103H361.474V98.52ZM442.375 98.52H452.455C454.975 98.52 456.235 97.26 456.235 94.74V11.58C456.235 10.2733 455.909 9.33999 455.255 8.77999C454.695 8.12666 453.762 7.8 452.455 7.8H442.375V3.32H520.495L521.055 38.32H517.555C517.555 36.4533 517.135 33.28 516.295 28.8C515.549 24.32 514.009 20.3067 511.675 16.76C507.755 10.7867 502.249 7.8 495.155 7.8H472.895C471.589 7.8 470.609 8.12666 469.955 8.77999C469.395 9.33999 469.115 10.2733 469.115 11.58V49.24H479.895C484.655 49.24 488.062 46.8133 490.115 41.96C492.262 37.1067 493.335 31.9267 493.335 26.42H496.975V76.54H493.335C493.335 71.0333 492.262 65.8533 490.115 61C488.062 56.1467 484.655 53.72 479.895 53.72H469.115V94.74C469.115 97.26 470.375 98.52 472.895 98.52H495.295C498.002 98.52 500.755 97.9133 503.555 96.7C506.355 95.4867 508.735 93.62 510.695 91.1C512.562 88.4867 514.102 85.22 515.315 81.3C516.529 77.38 517.369 73.8333 517.835 70.66C518.302 67.3933 518.582 65.2933 518.675 64.36H522.175L520.495 103H442.375V98.52ZM536.795 98.52H541.975C547.482 98.52 551.495 95.1133 554.015 88.3L584.115 3.32H587.615L617.995 92.36C618.929 94.6933 620.049 96.3267 621.355 97.26C622.662 98.1 624.342 98.52 626.395 98.52H634.235V103H590.835V98.52H600.075C601.475 98.52 602.642 98.1933 603.575 97.54C604.509 96.7933 604.975 95.9533 604.975 95.02C604.975 93.8067 604.789 92.78 604.415 91.94L597.835 73.32H565.075L561.715 82.7C560.409 86.4333 559.755 89.14 559.755 90.82C559.755 92.8733 560.269 94.6933 561.295 96.28C562.322 97.7733 564.095 98.52 566.615 98.52H575.155V103H536.795V98.52ZM566.615 68.84H596.295L581.735 26.14L566.615 68.84ZM666.25 15.92H665.41V87.32C665.41 90.7733 666.203 93.5267 667.79 95.58C669.47 97.54 671.616 98.52 674.23 98.52H679.27V103H645.95V98.52H650.99C653.603 98.52 655.703 97.54 657.29 95.58C658.97 93.5267 659.81 90.7733 659.81 87.32V11.58C659.81 10.2733 659.483 9.33999 658.83 8.77999C658.27 8.12666 657.336 7.8 656.03 7.8H645.95V3.32H675.63L698.45 80.46L719.73 3.32H748.71V7.8H738.63C737.323 7.8 736.343 8.12666 735.69 8.77999C735.13 9.33999 734.85 10.2733 734.85 11.58V94.74C734.85 97.26 736.11 98.52 738.63 98.52H748.71V103H708.11V98.52H718.19C720.71 98.52 721.97 97.26 721.97 94.74V12.14L696.35 104.68H692.99L666.25 15.92Z" fill="#9A8584" fill-opacity="0.1"/>
</svg>
