<svg width="709" height="106" viewBox="0 0 709 106" fill="none" xmlns="http://www.w3.org/2000/svg">
<path d="M17.72 98.52H31.16C33.68 98.52 34.94 97.26 34.94 94.74V11.16C34.94 9.85333 34.66 8.92 34.1 8.35999C33.54 7.70666 32.56 7.38 31.16 7.38H26.12C20.24 7.38 15.1533 10.3667 10.86 16.34C8.15333 20.1667 6.33333 24.9733 5.4 30.76C4.46667 36.4533 4 40.6533 4 43.36H0.0800006L1.2 3.32H81.56L82.68 43.36H78.76C78.76 40.6533 78.2933 36.4533 77.36 30.76C76.4267 24.9733 74.6067 20.1667 71.9 16.34C67.6067 10.3667 62.52 7.38 56.64 7.38H51.6C50.2 7.38 49.22 7.70666 48.66 8.35999C48.1 8.92 47.82 9.85333 47.82 11.16V94.74C47.82 97.26 49.08 98.52 51.6 98.52H65.04V103H17.72V98.52ZM98.6214 98.52H108.701C111.221 98.52 112.481 97.26 112.481 94.74V11.58C112.481 9.06 111.221 7.8 108.701 7.8H98.6214V3.32H139.221V7.8H129.141C126.621 7.8 125.361 9.06 125.361 11.58V48.4H167.641V11.58C167.641 9.06 166.381 7.8 163.861 7.8H153.781V3.32H194.381V7.8H184.301C181.781 7.8 180.521 9.06 180.521 11.58V94.74C180.521 97.26 181.781 98.52 184.301 98.52H194.381V103H153.781V98.52H163.861C166.381 98.52 167.641 97.26 167.641 94.74V52.88H125.361V94.74C125.361 97.26 126.621 98.52 129.141 98.52H139.221V103H98.6214V98.52ZM208.953 98.52H219.033C221.553 98.52 222.813 97.26 222.813 94.74V11.58C222.813 10.2733 222.487 9.33999 221.833 8.77999C221.273 8.12666 220.34 7.8 219.033 7.8H208.953V3.32H287.073L287.633 38.32H284.133C284.133 36.4533 283.713 33.28 282.873 28.8C282.127 24.32 280.587 20.3067 278.253 16.76C274.333 10.7867 268.827 7.8 261.733 7.8H239.473C238.167 7.8 237.187 8.12666 236.533 8.77999C235.973 9.33999 235.693 10.2733 235.693 11.58V49.24H246.473C251.233 49.24 254.64 46.8133 256.693 41.96C258.84 37.1067 259.913 31.9267 259.913 26.42H263.553V76.54H259.913C259.913 71.0333 258.84 65.8533 256.693 61C254.64 56.1467 251.233 53.72 246.473 53.72H235.693V94.74C235.693 97.26 236.953 98.52 239.473 98.52H261.873C264.58 98.52 267.333 97.9133 270.133 96.7C272.933 95.4867 275.313 93.62 277.273 91.1C279.14 88.4867 280.68 85.22 281.893 81.3C283.107 77.38 283.947 73.8333 284.413 70.66C284.88 67.3933 285.16 65.2933 285.253 64.36H288.753L287.073 103H208.953V98.52ZM344.852 98.52H354.932C357.452 98.52 358.712 97.26 358.712 94.74V11.58C358.712 10.2733 358.385 9.33999 357.732 8.77999C357.172 8.12666 356.239 7.8 354.932 7.8H344.852V3.32H390.492C395.999 3.32 401.132 4.34666 405.892 6.39999C410.745 8.45333 414.619 11.3 417.512 14.94C420.405 18.4867 421.852 22.5467 421.852 27.12C421.852 33.4667 419.705 38.6933 415.412 42.8C411.119 46.9067 406.125 49.5667 400.432 50.78V51.34C404.259 51.62 408.039 52.8333 411.772 54.98C415.599 57.0333 418.725 59.88 421.152 63.52C423.672 67.16 424.932 71.2667 424.932 75.84C424.932 81.5333 423.439 86.4333 420.452 90.54C417.465 94.6467 413.452 97.7733 408.412 99.92C403.465 101.973 398.005 103 392.032 103H344.852V98.52ZM389.932 48.68C397.492 48.68 402.625 46.7667 405.332 42.94C408.132 39.02 409.532 33.7467 409.532 27.12C409.532 21.52 407.759 16.9 404.212 13.26C400.665 9.62 396.279 7.8 391.052 7.8H375.372C374.065 7.8 373.085 8.12666 372.432 8.77999C371.872 9.33999 371.592 10.2733 371.592 11.58V48.68H389.932ZM390.492 98.52C396.185 98.52 400.852 96.84 404.492 93.48C408.225 90.0267 410.092 84.1467 410.092 75.84C410.092 67.5333 408.225 61.7 404.492 58.34C400.852 54.8867 396.185 53.16 390.492 53.16H371.592V94.74C371.592 97.26 372.852 98.52 375.372 98.52H390.492ZM441.512 98.52H451.592C454.112 98.52 455.372 97.26 455.372 94.74V11.58C455.372 10.2733 455.045 9.33999 454.392 8.77999C453.832 8.12666 452.899 7.8 451.592 7.8H441.512V3.32H519.632L520.192 38.32H516.692C516.692 36.4533 516.272 33.28 515.432 28.8C514.685 24.32 513.145 20.3067 510.812 16.76C506.892 10.7867 501.385 7.8 494.292 7.8H472.032C470.725 7.8 469.745 8.12666 469.092 8.77999C468.532 9.33999 468.252 10.2733 468.252 11.58V49.24H479.032C483.792 49.24 487.199 46.8133 489.252 41.96C491.399 37.1067 492.472 31.9267 492.472 26.42H496.112V76.54H492.472C492.472 71.0333 491.399 65.8533 489.252 61C487.199 56.1467 483.792 53.72 479.032 53.72H468.252V94.74C468.252 97.26 469.512 98.52 472.032 98.52H494.432C497.139 98.52 499.892 97.9133 502.692 96.7C505.492 95.4867 507.872 93.62 509.832 91.1C511.699 88.4867 513.239 85.22 514.452 81.3C515.665 77.38 516.505 73.8333 516.972 70.66C517.439 67.3933 517.719 65.2933 517.812 64.36H521.312L519.632 103H441.512V98.52ZM578.632 105.52C574.712 105.52 570.839 104.68 567.012 103C563.279 101.227 560.012 99.3133 557.212 97.26C553.292 94.2733 550.959 92.78 550.212 92.78C548.346 92.78 547.132 94.7867 546.572 98.8L546.012 104.4H542.792L541.812 60.16H545.172C545.732 67.0667 547.646 73.6933 550.912 80.04C554.272 86.2933 558.426 91.38 563.372 95.3C568.319 99.1267 573.406 101.04 578.632 101.04C586.286 101.04 591.839 99.1733 595.292 95.44C598.839 91.7067 600.612 87.2267 600.612 82C600.612 77.4267 599.259 73.8333 596.552 71.22C593.939 68.6067 590.066 66.2733 584.932 64.22L563.652 55.68C556.279 52.6933 550.819 48.8667 547.272 44.2C543.819 39.44 542.092 33.7467 542.092 27.12C542.092 18.16 544.706 11.5333 549.932 7.24C555.159 2.94666 561.692 0.799997 569.532 0.799997C575.692 0.799997 582.506 3.6 589.972 9.2C590.906 9.85333 591.839 10.46 592.772 11.02C593.706 11.4867 594.546 11.72 595.292 11.72C596.879 11.72 597.812 10.6 598.092 8.35999L598.652 3.32H602.012L603.412 39.72H600.052C598.559 33 596.179 27.0267 592.912 21.8C589.739 16.5733 586.006 12.5133 581.712 9.61999C577.419 6.72666 572.986 5.28 568.412 5.28C563.186 5.28 558.892 7.00666 555.532 10.46C552.172 13.82 550.492 18.5333 550.492 24.6C550.492 28.8 551.566 32.0667 553.712 34.4C555.859 36.7333 559.032 38.74 563.232 40.42L590.252 51.2C596.506 53.72 601.172 57.3133 604.252 61.98C607.426 66.6467 609.012 71.5467 609.012 76.68C609.012 81.6267 607.892 86.2933 605.652 90.68C603.506 95.0667 600.146 98.66 595.572 101.46C591.092 104.167 585.446 105.52 578.632 105.52ZM644.029 98.52H657.469C659.989 98.52 661.249 97.26 661.249 94.74V11.16C661.249 9.85333 660.969 8.92 660.409 8.35999C659.849 7.70666 658.869 7.38 657.469 7.38H652.429C646.549 7.38 641.462 10.3667 637.169 16.34C634.462 20.1667 632.642 24.9733 631.709 30.76C630.775 36.4533 630.309 40.6533 630.309 43.36H626.389L627.509 3.32H707.869L708.989 43.36H705.069C705.069 40.6533 704.602 36.4533 703.669 30.76C702.735 24.9733 700.915 20.1667 698.209 16.34C693.915 10.3667 688.829 7.38 682.949 7.38H677.909C676.509 7.38 675.529 7.70666 674.969 8.35999C674.409 8.92 674.129 9.85333 674.129 11.16V94.74C674.129 97.26 675.389 98.52 677.909 98.52H691.349V103H644.029V98.52Z" fill="#EAE1DC"/>
</svg>
